<svg width="69" height="53" viewBox="0 0 69 53" fill="none" xmlns="http://www.w3.org/2000/svg">
<circle cx="24.4731" cy="28.2847" r="24.3247" fill="#04A756" fill-opacity="0.08"/>
<g clip-path="url(#clip0_367_2147)">
<path d="M49 35.5V27H55.5V35.5L52 34L49 35.5Z" fill="#00D169"/>
<path d="M29 35.5V27H35.5V35.5L32 34L29 35.5Z" fill="#00D169"/>
<path d="M49 17.5V9H55.5V17.5L52 16L49 17.5Z" fill="#00D169"/>
<path d="M68.0389 51.1917C67.7782 51.7197 67.361 51.9088 66.7678 51.9088C60.1252 51.8958 53.4891 51.8827 46.8465 51.9153C45.9534 51.9153 45.4254 51.0874 45.7253 50.5007C45.9143 50.1227 46.1881 49.888 46.6249 49.8749C46.7748 49.8749 46.9313 49.8749 47.0812 49.8749C53.1632 49.8749 59.2452 49.8749 65.3271 49.8749C65.5292 49.8749 65.7313 49.8749 65.9725 49.8749V46.3613H18.1966V49.8749H18.7833C24.9696 49.8749 31.1494 49.888 37.3357 49.8554C38.1114 49.8554 38.8024 50.5855 38.4178 51.3286C38.2222 51.7067 37.9158 51.9023 37.4791 51.9023C36.7359 51.9023 35.9928 51.9023 35.2497 51.9023C29.3046 51.9023 23.353 51.9023 17.4079 51.9023C16.4627 51.9023 16.1367 51.5763 16.1367 50.6246C16.1367 48.9037 16.1367 47.1762 16.1367 45.4552C16.1367 44.686 16.5148 44.3079 17.284 44.3014C18.4444 44.3014 19.6047 44.3014 20.8302 44.3014C20.8302 44.0602 20.8302 43.8582 20.8302 43.6626C20.8302 38.7605 20.8302 33.8649 20.8302 28.9628C20.8302 27.4309 21.6451 26.3488 23.0205 26.0163C23.2291 25.9642 23.4573 25.9577 23.6724 25.9577C29.2133 25.9577 34.7542 25.9577 40.3017 25.9577C40.569 25.9577 40.8362 25.9968 41.0774 26.0163C41.0774 23.2068 41.0774 20.3776 41.0774 17.555C41.0774 15.2083 41.0774 12.8615 41.0774 10.5083C41.0774 8.77428 42.2378 7.60742 43.9522 7.60742C49.441 7.60742 54.9363 7.60742 60.425 7.60742C62.1199 7.60742 63.3324 8.73516 63.3389 10.4366C63.365 15.3386 63.365 20.2342 63.3259 25.1363C63.3259 25.6643 63.026 26.1858 62.8891 26.7204C62.85 26.8768 62.8109 27.0854 62.8891 27.2093C63.2477 27.796 63.352 28.4283 63.352 29.0997C63.352 33.9497 63.352 38.7996 63.352 43.643C63.352 43.8451 63.352 44.0407 63.352 44.3079C64.4993 44.3079 65.6074 44.334 66.7222 44.3014C67.3284 44.2819 67.7782 44.4644 68.0455 45.0185V51.2048L68.0389 51.1917ZM36.2992 27.985C36.2992 30.6577 36.2992 33.2587 36.2992 35.8596C36.2992 36.8309 35.543 37.2807 34.676 36.8375C33.9133 36.4463 33.1506 36.0487 32.401 35.625C32.1076 35.4555 31.8664 35.4424 31.5666 35.6119C30.8495 36.0226 30.1129 36.4007 29.3828 36.7788C29.2198 36.8635 29.0503 36.9548 28.8743 36.9874C28.1442 37.1243 27.6488 36.6419 27.6488 35.7749C27.6423 33.376 27.6488 30.9771 27.6488 28.5782C27.6488 28.3827 27.6488 28.1936 27.6488 27.972C26.3842 27.972 25.1978 27.972 24.0179 27.972C23.1183 27.972 22.9097 28.1741 22.9097 29.0606C22.9097 33.9562 22.9097 38.8583 22.9097 43.7538C22.9097 43.9168 22.9227 44.0798 22.9292 44.2493H41.0579C41.0579 44.1385 41.0709 44.0733 41.0709 44.0081C41.0709 38.9952 41.0709 33.9757 41.0709 28.9628C41.0709 28.8781 41.0709 28.7933 41.0709 28.7086C41.0122 28.2849 40.771 27.998 40.3538 27.985C39.024 27.9589 37.6942 27.9785 36.3122 27.9785L36.2992 27.985ZM47.8634 27.9785C46.5792 27.9785 45.3798 27.9785 44.1803 27.9785C43.3394 27.9785 43.0917 28.2197 43.0917 29.0606C43.0917 33.9757 43.0917 38.8909 43.0917 43.806C43.0917 43.969 43.0917 44.1254 43.0917 44.2688H61.2594C61.2594 42.3262 61.2594 40.4163 61.2594 38.5063C61.2594 35.3121 61.2594 32.1244 61.2594 28.9302C61.2594 28.337 61.0508 28.0111 60.5685 27.998C59.2386 27.972 57.9088 27.985 56.5203 27.985C56.5203 28.2262 56.5203 28.4218 56.5203 28.6238C56.5203 30.951 56.4812 33.2847 56.5399 35.6119C56.5725 36.9157 55.6012 37.3394 54.6494 36.7201C54.0041 36.2964 53.2805 35.9965 52.6091 35.6119C52.3092 35.4424 52.0745 35.449 51.7747 35.6185C51.0707 36.0226 50.3536 36.3877 49.6365 36.7592C48.587 37.3133 47.8634 36.8831 47.8634 35.7162C47.8634 33.3369 47.8634 30.951 47.8634 28.5717C47.8634 28.3892 47.8634 28.2066 47.8634 27.9785ZM56.5203 9.63475V10.3062C56.5203 12.6008 56.4682 14.9019 56.5399 17.1965C56.579 18.4742 55.725 19.0674 54.5777 18.3438C53.9259 17.9266 53.2218 17.5876 52.5243 17.2552C52.3353 17.1639 52.0354 17.1704 51.8464 17.2552C51.1032 17.6072 50.3601 17.9787 49.6561 18.4155C48.6196 19.0543 47.8048 18.3503 47.8374 17.3464C47.9025 14.9671 47.8569 12.5877 47.8569 10.2019V9.63475C46.5923 9.63475 45.3994 9.63475 44.1999 9.63475C43.3199 9.63475 43.0852 9.86291 43.0852 10.7364C43.0852 15.4495 43.0852 20.156 43.0852 24.8691C43.0852 25.71 43.3264 25.9512 44.1673 25.9512C46.8726 25.9512 49.5713 25.9512 52.2766 25.9512C54.9623 25.9512 57.6481 25.9512 60.3338 25.9512C60.9596 25.9512 61.2529 25.7034 61.2529 25.1363C61.2529 20.2407 61.2529 15.3452 61.2529 10.4431C61.2529 9.93461 60.9857 9.64127 60.4837 9.63475C59.1865 9.61519 57.8827 9.63475 56.5138 9.63475H56.5203ZM34.2327 28.0111H29.7218V34.2691C30.2563 33.9888 30.7517 33.7476 31.2211 33.4673C31.723 33.1739 32.1924 33.1674 32.7008 33.4673C33.1897 33.7476 33.6982 34.0018 34.2262 34.2821V28.0176L34.2327 28.0111ZM49.9168 34.2821C50.3862 34.0344 50.8099 33.8584 51.1815 33.6107C51.8855 33.1283 52.5439 33.1479 53.2414 33.6237C53.6064 33.8714 54.0171 34.0409 54.4343 34.256V28.0241H49.9234V34.2886L49.9168 34.2821ZM49.9429 9.64127V15.9123C50.5035 15.619 51.0185 15.3712 51.5074 15.0844C51.9768 14.8106 52.42 14.8237 52.8894 15.0909C53.3783 15.3712 53.8933 15.619 54.4148 15.8927V9.64127H49.9429Z" fill="#555555"/>
<path d="M41.0573 50.892C41.0573 50.3053 41.4875 49.8686 42.0677 49.8751C42.6414 49.8751 43.0977 50.3379 43.0846 50.905C43.0781 51.4461 42.6218 51.8894 42.0807 51.9024C41.5006 51.9154 41.0573 51.4787 41.0508 50.8985L41.0573 50.892Z" fill="#555555"/>
</g>
<defs>
<clipPath id="clip0_367_2147">
<rect width="52" height="52" fill="white" transform="translate(16.0391)"/>
</clipPath>
</defs>
</svg>
