<svg width="69" height="53" viewBox="0 0 69 53" fill="none" xmlns="http://www.w3.org/2000/svg">
<circle cx="24.9731" cy="28.5317" r="24.3247" fill="#04A756" fill-opacity="0.08"/>
<g clip-path="url(#clip0_241_22848)">
<path d="M16.5432 5.33774C16.5432 4.24683 16.5432 3.03471 16.5432 1.9438C17.0281 0.731682 17.9978 0.489258 19.2099 0.489258C25.2705 0.489258 31.3311 0.489258 37.3917 0.489258C37.6341 0.489258 37.8765 0.489258 38.119 0.61047C38.6038 0.731682 38.8462 1.09532 38.8462 1.58017C38.8462 2.06502 38.6038 2.42865 38.119 2.54986C37.8765 2.67108 37.6341 2.67108 37.3917 2.67108C31.3311 2.67108 25.1493 2.67108 19.0887 2.67108C18.8462 2.67108 18.725 2.67108 18.4826 2.67108C18.4826 3.51956 18.4826 4.24683 18.4826 4.97411C34.3614 4.97411 50.3614 4.97411 66.2402 4.97411C66.2402 4.24683 66.2402 3.39835 66.2402 2.67108C65.9978 2.67108 65.8765 2.67108 65.6341 2.67108C62.9674 2.67108 60.1796 2.67108 57.5129 2.67108C53.9978 2.67108 50.4826 2.67108 47.0887 2.67108C46.3614 2.67108 45.8765 2.30744 45.8765 1.58017C45.8765 0.974106 46.3614 0.489258 46.9675 0.489258C53.3917 0.489258 59.8159 0.489258 66.2402 0.489258C67.4523 0.489258 68.3008 1.33774 68.3008 2.67108C68.3008 3.39835 68.3008 4.12562 68.3008 4.85289C68.3008 6.30744 67.4523 7.03471 66.119 7.03471C65.7553 7.03471 65.5129 7.03471 65.1493 7.03471C65.1493 14.9135 65.1493 22.7923 65.1493 30.6711C65.6341 30.6711 66.119 30.6711 66.6038 30.6711C67.6947 30.7923 68.422 31.6408 68.422 32.6105C68.422 33.459 68.422 34.3074 68.422 35.0347C68.422 35.1559 68.422 35.3983 68.3008 35.5196C68.0584 36.4893 67.2099 36.9741 66.119 36.9741C61.3917 36.9741 56.5432 36.9741 51.8159 36.9741C51.5735 36.9741 51.4523 36.9741 51.2099 36.9741C51.3311 37.2165 51.4523 37.3377 51.4523 37.459C52.1796 38.7923 53.0281 40.1256 53.7553 41.5802C54.8462 43.5196 56.0584 45.459 57.1493 47.5196C58.119 49.3377 57.2705 51.5196 55.3311 52.0044C55.0887 52.1256 54.8462 52.1256 54.6038 52.1256C54.4826 52.1256 54.3614 52.1256 54.2402 52.1256C52.7856 51.8832 51.9371 50.9135 51.2099 49.7014C49.3917 46.5499 47.5735 43.3983 45.7553 40.2468C45.6341 40.1256 45.6341 40.0044 45.3917 39.762C45.3917 40.1256 45.3917 40.2468 45.3917 40.4893C45.3917 43.2771 45.3917 46.1862 45.3917 48.9741C45.3917 50.4286 44.422 51.6408 43.0887 52.0044C42.8462 52.0044 42.725 52.1256 42.4826 52.1256C42.3614 52.1256 42.2402 52.1256 42.119 52.1256C42.119 52.1256 41.9978 52.1256 41.9978 52.0044C40.0584 51.5196 39.2099 50.5499 39.2099 48.4893C39.2099 45.7014 39.2099 43.0347 39.2099 40.2468C39.2099 40.1256 39.2099 39.8832 39.2099 39.6408C39.0887 39.8832 38.9674 40.1256 38.8462 40.2468C36.9068 43.6408 34.9674 46.9135 33.0281 50.3074C32.6644 50.9135 32.1796 51.5196 31.5735 51.762C31.2099 51.8832 30.8462 52.0044 30.3614 52.1256C30.2402 52.1256 30.119 52.1256 29.9978 52.1256C29.7553 52.1256 29.5129 52.0044 29.2705 52.0044C27.2099 51.3983 26.3614 49.2165 27.4523 47.2771C29.3917 44.0044 31.2099 40.7317 33.1493 37.459C33.2705 37.3377 33.2705 37.0953 33.3917 36.9741C30.3614 36.9741 27.3311 36.9741 24.3008 36.9741C24.3008 38.3074 24.3008 39.5196 24.3008 40.8529C24.422 40.8529 24.5432 40.8529 24.5432 40.9741C25.1493 41.0953 25.3917 41.5802 25.3917 42.065C25.3917 42.5499 25.0281 43.0347 24.422 43.0347C23.6947 43.0347 22.8462 43.0347 22.119 43.0347C21.5129 43.0347 21.0281 42.5499 21.1493 41.8226C21.2705 41.2165 21.7553 40.9741 22.2402 40.8529C22.2402 39.5196 22.2402 38.3074 22.2402 36.9741C21.1493 36.9741 20.0584 36.9741 18.9674 36.9741C17.7553 37.0953 16.7856 36.6105 16.3008 35.5196C16.3008 34.3074 16.3008 33.2165 16.3008 32.0044C16.9068 30.5499 18.2402 30.4286 19.4523 30.5499C19.4523 22.6711 19.4523 14.7923 19.4523 7.03471C19.0887 6.9135 18.4826 6.9135 17.8765 6.67108C17.1493 6.54986 16.7856 5.9438 16.5432 5.33774ZM21.8765 6.9135C21.8765 14.7923 21.8765 22.6711 21.8765 30.4286C35.6947 30.4286 49.3917 30.4286 63.2099 30.4286C63.2099 22.5499 63.2099 14.7923 63.2099 6.9135C49.3917 6.9135 35.5735 6.9135 21.8765 6.9135ZM66.3614 32.6105C50.3614 32.6105 34.4826 32.6105 18.6038 32.6105C18.6038 33.3377 18.6038 34.1862 18.6038 34.9135C34.4826 34.9135 50.4826 34.9135 66.3614 34.9135C66.3614 34.065 66.3614 33.3377 66.3614 32.6105ZM46.4826 36.9741C46.4826 37.0953 46.4826 37.0953 46.4826 37.2165C48.9068 41.3377 51.2099 45.459 53.6341 49.5802C53.9978 50.1862 54.6038 50.3074 55.0887 49.9438C55.5735 49.5802 55.6947 48.9741 55.4523 48.4893C53.2705 44.7317 51.0887 40.9741 49.0281 37.3377C48.9068 37.2165 48.7856 37.0953 48.6644 37.0953C47.9371 36.9741 47.2099 36.9741 46.4826 36.9741ZM38.6038 36.9741C37.8765 36.9741 37.2705 36.9741 36.5432 36.9741C36.1796 36.9741 36.0584 37.0953 35.8159 37.3377C34.725 39.2771 33.6341 41.2165 32.5432 43.0347C31.5735 44.8529 30.4826 46.5499 29.5129 48.368C29.2705 48.7317 29.2705 49.2165 29.5129 49.5802C29.7553 49.9438 30.119 50.1862 30.6038 49.9438C30.9674 49.8226 31.3311 49.5802 31.4523 49.2165C32.9068 46.7923 34.2402 44.368 35.6947 41.9438C36.5432 40.368 37.5129 38.7923 38.6038 36.9741ZM41.3917 36.9741C41.3917 37.0953 41.3917 37.3377 41.3917 37.459C41.3917 41.2165 41.3917 44.9741 41.3917 48.7317C41.3917 48.9741 41.3917 49.0953 41.5129 49.3377C41.6341 49.8226 41.9978 50.065 42.4826 50.065C43.2099 50.065 43.6947 49.7014 43.6947 48.7317C43.6947 44.9741 43.6947 41.2165 43.6947 37.3377C43.6947 37.2165 43.6947 37.0953 43.6947 36.8529C42.8462 36.9741 42.119 36.9741 41.3917 36.9741Z" fill="#555555"/>
<path d="M43.4512 1.45907C43.4512 2.06513 42.9664 2.54998 42.3603 2.42877C41.7543 2.42877 41.3906 1.94392 41.3906 1.33786C41.3906 0.853012 41.8755 0.368164 42.3603 0.368164C43.0876 0.368164 43.4512 0.853012 43.4512 1.45907Z" fill="#555555"/>
<path d="M28.1289 18.9109H25.3203L33.9561 10.0068L42.5614 18.5823L40.0814 18.9109V26.9186H28.1289V18.9109Z" fill="#00D169"/>
<path d="M26.7252 20.0049C26.1191 20.0049 25.6343 20.0049 25.1494 20.0049C24.6646 20.0049 24.3009 19.8837 24.0585 19.3989C23.8161 18.914 24.0585 18.5504 24.4222 18.1868C25.3919 17.2171 26.3616 16.2474 27.3312 15.2777C29.2706 13.3383 31.0888 11.5201 33.0282 9.5807C33.8767 8.73221 34.2403 8.73221 35.0888 9.5807C36.3009 10.7928 37.3919 11.8837 38.7252 13.0959C38.7252 12.8534 38.7252 12.611 38.7252 12.2474C38.7252 11.6413 39.21 11.2777 39.6949 11.2777C40.3009 11.2777 40.6646 11.7625 40.7858 12.2474C40.7858 13.0959 40.7858 13.9443 40.7858 14.7928C40.7858 15.0352 40.907 15.3989 41.1494 15.5201C41.9979 16.3686 42.8464 17.2171 43.6949 18.0655C44.0585 18.4292 44.3009 18.7928 44.0585 19.2777C43.8161 19.7625 43.4525 19.8837 42.9676 19.8837C42.4828 19.8837 41.9979 19.8837 41.3919 19.8837C41.3919 20.1262 41.3919 20.2474 41.3919 20.4898C41.3919 22.6716 41.3919 24.8534 41.3919 26.914C41.3919 27.7625 41.0282 28.1262 40.1797 28.1262C36.1797 28.1262 32.3009 28.1262 28.3009 28.1262C27.4525 28.1262 27.0888 27.7625 27.0888 26.914C27.0888 24.7322 27.0888 22.6716 27.0888 20.4898C26.7252 20.3686 26.7252 20.2474 26.7252 20.0049ZM39.0888 26.1868C39.0888 25.9443 39.0888 25.8231 39.0888 25.5807C39.0888 23.3989 39.0888 21.2171 39.0888 19.0352C39.0888 18.308 39.4525 17.9443 40.1797 17.8231C38.1191 15.7625 35.9373 13.5807 33.9979 11.5201C31.9373 13.5807 29.8767 15.7625 27.8161 17.8231C28.5434 17.9443 28.907 18.1868 28.907 19.0352C28.907 21.2171 28.907 23.3989 28.907 25.4595C28.907 25.5807 28.907 25.8231 28.907 25.9443C32.3009 26.1868 35.6949 26.1868 39.0888 26.1868Z" fill="#555555"/>
<path d="M53.152 9.0957C55.3338 9.0957 57.3944 9.0957 59.5762 9.0957C60.5459 9.0957 60.7884 9.45934 60.7884 10.429C60.7884 11.7624 60.7884 12.9745 60.7884 14.3078C60.7884 15.0351 60.4247 15.5199 59.6974 15.5199C55.3338 15.5199 50.9702 15.5199 46.6065 15.5199C45.8793 15.5199 45.5156 15.1563 45.5156 14.3078C45.5156 12.9745 45.5156 11.6412 45.5156 10.3078C45.5156 9.45934 45.8793 9.0957 46.7277 9.0957C48.9096 9.0957 51.0914 9.0957 53.152 9.0957ZM58.849 11.1563C55.0914 11.1563 51.3338 11.1563 47.5762 11.1563C47.5762 11.8836 47.5762 12.6109 47.5762 13.3381C51.3338 13.3381 55.0914 13.3381 58.849 13.3381C58.849 12.6109 58.849 11.8836 58.849 11.1563Z" fill="#555555"/>
<path d="M55.9374 21.9443C57.2707 21.9443 58.4828 21.9443 59.8162 21.9443C60.5434 21.9443 61.0283 22.4292 61.0283 23.0352C61.0283 23.5201 60.7859 23.7625 60.301 23.8837C60.0586 23.8837 59.8162 24.0049 59.695 24.0049C57.2707 24.0049 54.8465 24.0049 52.5434 24.0049C52.4222 24.0049 52.301 24.0049 52.1798 24.0049C51.5737 23.8837 51.0889 23.5201 51.2101 22.914C51.2101 22.308 51.695 21.9443 52.301 21.9443C53.2707 21.9443 54.604 21.9443 55.9374 21.9443Z" fill="#555555"/>
<path d="M55.9366 28.2471C54.6033 28.2471 53.3911 28.2471 52.0578 28.2471C51.573 28.2471 51.2093 28.0047 51.0881 27.6411C50.9669 27.2774 50.9669 26.7926 51.3305 26.5502C51.573 26.4289 51.8154 26.1865 52.0578 26.1865C54.7245 26.1865 57.2699 26.1865 59.9366 26.1865C60.5427 26.1865 61.0275 26.6714 61.0275 27.2774C61.0275 27.8835 60.5427 28.2471 59.9366 28.2471C58.4821 28.2471 57.1487 28.2471 55.9366 28.2471Z" fill="#555555"/>
<path d="M55.9384 19.6406C54.6051 19.6406 53.393 19.6406 52.0597 19.6406C51.4536 19.6406 50.9688 19.1557 50.9688 18.6709C50.9688 18.0648 51.4536 17.7012 52.1809 17.7012C54.7263 17.7012 57.2718 17.7012 59.8172 17.7012C60.5445 17.7012 60.9081 18.0648 60.9081 18.6709C60.9081 19.2769 60.4233 19.6406 59.696 19.6406C58.4839 19.6406 57.1506 19.6406 55.9384 19.6406Z" fill="#555555"/>
<path d="M47.2086 21.9443C47.451 21.9443 47.6934 21.9443 47.8147 21.9443C48.4207 21.9443 48.7844 22.4292 48.7844 22.914C48.7844 23.3989 48.4207 23.8837 47.8147 24.0049C47.3298 24.0049 46.7237 24.0049 46.2389 24.0049C45.6328 24.0049 45.2692 23.5201 45.3904 23.0352C45.3904 22.5504 45.754 22.0655 46.3601 22.0655C46.7237 21.9443 46.9662 21.9443 47.2086 21.9443Z" fill="#555555"/>
<path d="M47.2126 28.247C46.9702 28.247 46.7277 28.247 46.4853 28.247C45.8793 28.247 45.5156 27.7622 45.5156 27.2773C45.5156 26.6713 45.8793 26.3076 46.4853 26.3076C46.9702 26.3076 47.455 26.3076 47.9399 26.3076C48.5459 26.3076 48.9096 26.7925 48.9096 27.2773C48.9096 27.7622 48.5459 28.247 47.9399 28.3682C47.6974 28.3682 47.455 28.247 47.2126 28.247Z" fill="#555555"/>
<path d="M47.208 17.7012C47.4504 17.7012 47.6928 17.7012 47.9353 17.7012C48.4201 17.7012 48.905 18.186 48.905 18.6709C48.905 19.1557 48.5413 19.6406 47.9353 19.6406C47.4504 19.6406 46.8444 19.6406 46.3595 19.6406C45.8747 19.6406 45.3898 19.1557 45.511 18.6709C45.511 18.186 45.8747 17.7012 46.4807 17.7012C46.7231 17.7012 46.9656 17.7012 47.208 17.7012Z" fill="#555555"/>
</g>
<defs>
<clipPath id="clip0_241_22848">
<rect width="52" height="52" fill="white" transform="translate(16.543 0.24707)"/>
</clipPath>
</defs>
</svg>
