<svg width="69" height="53" viewBox="0 0 69 53" fill="none" xmlns="http://www.w3.org/2000/svg">
<circle cx="24.9731" cy="28.5317" r="24.3247" fill="#04A756" fill-opacity="0.08"/>
<g clip-path="url(#clip0_241_22825)">
<path d="M17.6186 52.247C17.4974 52.247 17.3762 52.1257 17.3762 52.1257C16.6489 51.7621 16.1641 51.156 16.1641 50.3076C16.1641 47.2773 16.1641 44.3682 16.1641 41.3379C16.1641 40.6106 16.5277 40.247 17.1338 40.247C17.7398 40.247 18.2247 40.6106 18.2247 41.4591C18.2247 44.247 18.2247 47.0348 18.2247 49.8227C18.2247 50.0651 18.2247 50.1863 18.2247 50.4288C19.558 50.4288 20.8913 50.4288 22.2247 50.4288C22.2247 42.6712 22.2247 34.9136 22.2247 27.156C21.255 27.0348 20.5277 26.6712 20.2853 25.7015C20.1641 24.6106 20.1641 23.5197 20.2853 22.55C20.4065 21.3379 21.255 20.853 22.2247 20.853C35.4368 20.853 48.6489 20.853 61.861 20.853C63.0732 20.853 63.9216 21.7015 63.9216 22.9136C63.9216 23.5197 63.9216 24.1257 63.9216 24.7318C63.9216 25.9439 63.1944 26.7924 61.9822 26.9136C61.9822 34.6712 61.9822 42.4288 61.9822 50.1863C63.3156 50.1863 64.6489 50.1863 65.9822 50.1863C65.9822 49.9439 65.9822 49.8227 65.9822 49.5803C65.9822 38.3076 65.9822 27.0348 65.9822 15.7621C65.9822 15.3985 65.9822 15.156 65.6186 15.0348C57.861 10.9136 50.2247 6.79241 42.5883 2.67119C42.2247 2.54998 41.9822 2.42877 41.7398 2.67119C34.1035 6.79241 26.4671 10.9136 18.7095 15.0348C18.3459 15.2773 18.2247 15.3985 18.2247 15.8833C18.2247 21.5803 18.2247 27.156 18.2247 32.853C18.2247 33.5803 17.861 33.9439 17.255 34.0651C16.6489 34.0651 16.2853 33.7015 16.1641 33.0954C16.1641 32.9742 16.1641 32.853 16.1641 32.7318C16.1641 27.0348 16.1641 21.3379 16.1641 15.5197C16.1641 14.55 16.5277 13.8227 17.4974 13.3379C25.255 9.09544 33.0125 4.97422 40.8913 0.7318C41.7398 0.246952 42.4671 0.246952 43.3156 0.7318C51.1944 4.97422 58.9519 9.21665 66.8307 13.3379C67.4368 13.7015 67.8004 14.1863 68.0429 14.6712C68.0429 26.6712 68.0429 38.6712 68.0429 50.6712C67.8004 51.3985 67.1944 51.8833 66.4671 52.247C50.2247 52.247 33.9822 52.247 17.6186 52.247ZM59.9216 26.9136C48.0429 26.9136 36.1641 26.9136 24.2853 26.9136C24.2853 34.6712 24.2853 42.4288 24.2853 50.1863C25.3762 50.1863 26.3459 50.1863 27.4368 50.1863C27.4368 49.9439 27.4368 49.8227 27.4368 49.5803C27.4368 47.3985 27.4368 45.3379 27.4368 43.156C27.4368 41.8227 28.2853 40.9742 29.6186 40.9742C30.3459 40.9742 31.1944 40.9742 32.0428 40.9742C32.0428 40.7318 32.0428 40.6106 32.0428 40.3682C32.0428 38.1863 32.0428 36.1257 32.0428 33.9439C32.0428 32.6106 32.8913 31.7621 34.2247 31.7621C39.558 31.7621 44.8913 31.7621 50.2247 31.7621C51.558 31.7621 52.4065 32.6106 52.4065 33.9439C52.4065 36.1257 52.4065 38.1863 52.4065 40.3682C52.4065 40.4894 52.4065 40.7318 52.4065 40.9742C53.255 40.9742 53.9822 40.9742 54.8307 40.9742C56.1641 40.9742 57.0125 41.8227 57.0125 43.156C57.0125 45.3379 57.0125 47.3985 57.0125 49.5803C57.0125 49.7015 57.0125 49.9439 57.0125 50.0651C58.1035 50.0651 59.0732 50.0651 60.1641 50.0651C59.9216 42.4288 59.9216 34.6712 59.9216 26.9136ZM61.861 22.9136C48.6489 22.9136 35.4368 22.9136 22.2247 22.9136C22.2247 23.6409 22.2247 24.2469 22.2247 24.853C35.4368 24.853 48.6489 24.853 61.861 24.853C61.861 24.1257 61.861 23.5197 61.861 22.9136ZM33.9822 33.9439C33.9822 36.3682 33.9822 38.6712 33.9822 40.9742C36.4065 40.9742 38.7095 40.9742 41.0125 40.9742C41.0125 38.6712 41.0125 36.2469 41.0125 33.9439C40.1641 33.9439 39.3156 33.9439 38.4671 33.9439C38.4671 34.1863 38.4671 34.3076 38.4671 34.55C38.4671 35.5197 38.1035 36.0045 37.4974 36.0045C36.8913 36.0045 36.5277 35.5197 36.5277 34.55C36.5277 34.3076 36.5277 34.1863 36.5277 33.9439C36.4065 33.9439 36.2853 33.9439 36.1641 33.9439C35.4368 33.9439 34.7095 33.9439 33.9822 33.9439ZM47.6792 33.9439C47.6792 34.3076 47.6792 34.6712 47.6792 35.0348C47.6792 35.6409 47.1944 36.0045 46.7095 36.0045C46.1035 36.0045 45.7398 35.5197 45.7398 35.0348C45.7398 34.6712 45.7398 34.3076 45.7398 34.0651C44.8913 34.0651 44.0428 34.0651 43.1944 34.0651C43.1944 36.3682 43.1944 38.7924 43.1944 41.0954C45.4974 41.0954 47.9216 41.0954 50.2247 41.0954C50.2247 38.7924 50.2247 36.3682 50.2247 34.0651C49.255 33.9439 48.5277 33.9439 47.6792 33.9439ZM33.9822 43.156C33.9822 43.3985 33.9822 43.5197 33.9822 43.7621C33.9822 44.7318 33.6186 45.2166 33.0125 45.2166C32.4065 45.2166 32.0428 44.7318 32.0428 43.7621C32.0428 43.5197 32.0428 43.3985 32.0428 43.156C31.1944 43.156 30.3459 43.156 29.4974 43.156C29.4974 45.5803 29.4974 47.8833 29.4974 50.1863C31.9216 50.1863 34.2247 50.1863 36.5277 50.1863C36.5277 47.8833 36.5277 45.4591 36.5277 43.156C35.6792 43.156 34.8307 43.156 33.9822 43.156ZM45.6186 50.1863C45.6186 47.7621 45.6186 45.4591 45.6186 43.156C44.7701 43.156 43.9216 43.156 43.0732 43.156C43.0732 43.5197 43.0732 43.7621 43.0732 44.0045C43.0732 44.7318 42.7095 45.0954 42.1035 45.2166C41.4974 45.2166 41.1338 44.7318 41.1338 44.1257C41.1338 43.7621 41.1338 43.5197 41.1338 43.156C40.2853 43.156 39.4368 43.156 38.5883 43.156C38.5883 45.4591 38.5883 47.8833 38.5883 50.1863C40.8913 50.1863 43.1944 50.1863 45.6186 50.1863ZM50.2247 43.156C49.3762 43.156 48.5277 43.156 47.6792 43.156C47.6792 45.4591 47.6792 47.8833 47.6792 50.1863C49.9822 50.1863 52.4065 50.1863 54.7095 50.1863C54.7095 47.7621 54.7095 45.4591 54.7095 43.156C53.861 43.156 53.0125 43.156 52.1641 43.156C52.1641 43.5197 52.1641 43.8833 52.1641 44.2469C52.1641 44.853 51.6792 45.2166 51.1944 45.2166C50.7095 45.2166 50.2247 44.7318 50.2247 44.2469C50.1035 43.8833 50.2247 43.5197 50.2247 43.156Z" fill="#555555"/>
<path d="M49.3516 16.4681H34.9883V11.0654H49.3516V16.4681Z" fill="#00D169"/>
<path d="M42.103 9.58008C44.2848 9.58008 46.3454 9.58008 48.5272 9.58008C49.9818 9.58008 50.709 10.4286 50.709 11.7619C50.709 13.0952 50.709 14.3074 50.709 15.6407C50.709 16.7316 49.9818 17.5801 48.8909 17.7013C48.7696 17.7013 48.5272 17.7013 48.406 17.7013C44.2848 17.7013 40.0424 17.7013 35.9212 17.7013C34.709 17.7013 33.7393 17.2164 33.7393 16.2467C33.6181 14.5498 33.6181 12.7316 33.7393 11.0346C33.8606 10.0649 34.709 9.58008 35.8 9.58008C37.7393 9.58008 39.9212 9.58008 42.103 9.58008ZM48.6484 11.6407C44.2848 11.6407 39.9212 11.6407 35.5575 11.6407C35.5575 12.974 35.5575 14.3074 35.5575 15.6407C39.9212 15.6407 44.2848 15.6407 48.6484 15.6407C48.6484 14.3074 48.6484 12.974 48.6484 11.6407Z" fill="#555555"/>
<path d="M18.2245 36.9747C18.2245 37.5808 17.7397 37.9444 17.2549 37.9444C16.6488 37.9444 16.2852 37.5808 16.2852 36.9747C16.2852 36.3686 16.6488 35.8838 17.2549 35.8838C17.7397 36.005 18.2245 36.4898 18.2245 36.9747Z" fill="#555555"/>
</g>
<defs>
<clipPath id="clip0_241_22825">
<rect width="52" height="52" fill="white" transform="translate(16.043 0.24707)"/>
</clipPath>
</defs>
</svg>
