<svg width="66" height="53" viewBox="0 0 66 53" fill="none" xmlns="http://www.w3.org/2000/svg">
<circle cx="25.1255" cy="25.2573" r="24.3247" fill="#04A756" fill-opacity="0.08"/>
<g clip-path="url(#clip0_241_22744)">
<path d="M55.4277 15.2592H40.2461L41.1331 13.8386V11.3083L43.4415 8.77791L46.2827 7.26855H49.5677L50.8995 7.5793L53.5186 9.35499L54.806 11.3083L55.4277 12.862V15.2592Z" fill="#00D169"/>
<path d="M29.168 33.5709V30.5303L34.7929 30.0742V31.0624V32.5447L34.4128 34.065L33.3486 35.2812L31.8283 35.8893L30.232 35.2812L29.168 33.5709Z" fill="#00D169"/>
<path d="M65.9993 46.8752C65.658 47.4441 65.2028 47.5579 64.6339 47.5579C48.2488 47.5579 31.8636 47.5579 15.4785 47.5579C14.4545 47.5579 14.1131 47.2165 14.1131 46.1925C14.1131 43.3478 14.1131 40.5032 14.1131 37.7723C13.9993 34.245 16.5026 31.1728 20.03 30.4901C22.1919 30.0349 24.24 29.5798 26.2882 29.0108C26.4019 29.0108 26.5157 28.8971 26.7433 28.8971C25.833 27.873 25.1503 26.7351 24.9227 25.4835C24.8089 24.8008 24.8089 24.1181 24.6952 23.3216C24.6952 22.4113 24.6952 21.3872 24.6952 20.3631C24.3538 20.3631 24.1262 20.3631 23.8987 20.3631C23.2159 20.3631 22.7608 19.908 22.7608 19.2253C22.7608 17.9737 22.7608 16.722 22.7608 15.4704C22.7608 15.2428 22.8746 14.9014 23.1022 14.6739C23.4435 14.4463 23.4435 14.1049 23.4435 13.7636C23.5573 10.0087 26.4019 6.70888 30.0431 5.91238C30.4982 5.7986 30.9534 5.68481 31.1809 5.34345C31.5223 4.88831 32.3188 5.0021 32.6601 5.45724C32.7739 5.57103 33.0015 5.7986 33.1153 5.7986C36.4151 6.48131 38.6908 8.30188 39.8286 11.4879C39.8286 11.6017 39.9424 11.6017 39.9424 11.8292C40.17 11.2603 40.3976 10.8052 40.6251 10.35C41.9906 7.84674 44.0387 6.36752 46.7696 5.91238C46.9971 5.91238 47.1109 5.68481 47.2247 5.57103C47.6798 4.88831 48.4763 4.88831 48.9315 5.57103C49.0453 5.68481 49.2728 5.91238 49.5004 5.91238C53.3691 6.48131 56.3275 9.89488 56.5551 13.7636C56.5551 14.2187 56.5551 14.6739 57.0103 14.9014C57.124 15.0152 57.2378 15.3566 57.2378 15.5842C57.2378 16.8358 57.2378 18.2012 57.2378 19.4529C57.2378 20.1356 56.7827 20.4769 56.2138 20.4769C55.9862 20.4769 55.6448 20.4769 55.3035 20.4769C55.3035 21.3872 55.3035 22.1837 55.3035 22.9802C55.3035 24.2319 55.3035 25.3697 54.7345 26.5076C54.2794 27.3041 53.8243 28.1006 53.3691 29.0108C54.2794 29.2384 55.4173 29.466 56.4413 29.6936C57.8068 30.0349 59.0584 30.2625 60.4238 30.6038C63.3822 31.4003 65.2028 33.3347 65.7717 36.4069C65.7717 36.5207 65.8855 36.6345 65.8855 36.7483C65.9993 40.048 65.9993 43.4616 65.9993 46.8752ZM35.7324 30.7176C35.7324 31.6279 35.7324 32.4244 35.7324 33.2209C35.6186 34.8139 34.8221 35.838 33.4566 36.5207C33.1153 36.6345 33.0015 36.8621 33.0015 37.2034C33.0015 39.8205 33.0015 42.4375 33.0015 45.0546C33.0015 45.1684 33.0015 45.396 33.0015 45.5098C36.5289 45.5098 39.9424 45.5098 43.4698 45.5098C43.4698 41.1859 43.4698 36.8621 43.4698 32.4244C40.8527 31.8555 38.3494 31.2866 35.7324 30.7176ZM20.3713 32.5382C20.3713 36.8621 20.3713 41.2997 20.3713 45.6235C21.054 45.6235 21.6229 45.6235 22.4194 45.6235C22.4194 45.396 22.4194 45.2822 22.4194 45.0546C22.4194 44.2581 22.4194 43.3478 22.4194 42.5513C22.4194 41.8686 22.8746 41.4135 23.4435 41.4135C24.0124 41.4135 24.4676 41.8686 24.4676 42.6651C24.4676 43.0065 24.4676 43.3478 24.4676 43.5754C24.4676 44.2581 24.4676 44.9408 24.4676 45.6235C26.6295 45.6235 28.7914 45.6235 30.9534 45.6235C30.9534 45.5098 30.9534 45.5098 30.9534 45.396C30.9534 42.6651 30.9534 39.8205 30.9534 37.0896C30.9534 36.7483 30.8396 36.7483 30.612 36.6345C29.2466 36.0656 28.3363 35.0415 28.2225 33.4485C28.1087 32.5382 28.2225 31.7417 28.2225 30.7176C25.3779 31.2866 22.8746 31.8555 20.3713 32.5382ZM52.1175 30.7176C52.1175 31.4003 52.1175 32.0831 52.1175 32.7658C52.1175 34.1312 51.6623 35.3828 50.4107 36.1793C49.728 36.5207 49.6142 36.9758 49.6142 37.6586C49.728 40.1618 49.6142 42.5513 49.6142 45.0546C49.6142 45.2822 49.6142 45.396 49.6142 45.6235C53.0278 45.6235 56.4413 45.6235 59.7411 45.6235C59.7411 41.2997 59.7411 36.9758 59.7411 32.652C57.2378 31.8555 54.7345 31.2866 52.1175 30.7176ZM26.6295 20.4769C26.6295 21.6148 26.6295 22.6389 26.6295 23.6629C26.6295 25.4835 27.3122 26.8489 28.6777 27.9868C31.0672 29.9211 34.8221 29.2384 36.3013 26.5076C37.4391 24.5732 36.8702 22.5251 37.0978 20.4769C33.5704 20.4769 30.1569 20.4769 26.6295 20.4769ZM43.1284 20.4769C43.1284 21.8424 43.0146 23.094 43.1284 24.4594C43.356 26.9627 45.4041 28.8971 48.0212 29.1246C50.2969 29.3522 52.8002 27.6454 53.2553 25.2559C53.5967 23.7767 53.4829 22.0699 53.5967 20.4769C49.9556 20.4769 46.542 20.4769 43.1284 20.4769ZM25.4917 14.4463C29.8155 14.4463 34.0256 14.4463 38.3494 14.4463C38.4632 11.2603 35.9599 8.41566 33.0015 7.96052C33.0015 8.18809 33.0015 8.30188 33.0015 8.52945C33.0015 9.43973 33.0015 10.4638 33.0015 11.3741C33.0015 11.6017 33.0015 11.943 32.8877 12.1706C32.6601 12.6257 32.3188 12.7395 31.7499 12.6257C31.2947 12.5119 30.9534 12.1706 30.9534 11.4879C30.9534 10.4638 30.9534 9.43973 30.9534 8.30188C30.9534 8.07431 30.9534 7.96052 30.9534 7.73295C27.6536 8.41566 25.1503 11.6017 25.4917 14.4463ZM49.2728 7.96052C49.2728 8.18809 49.2728 8.41566 49.2728 8.52945C49.2728 9.55352 49.2728 10.5776 49.2728 11.6017C49.2728 12.5119 48.5901 12.9671 47.9074 12.7395C47.3385 12.5119 47.2247 12.0568 47.2247 11.4879C47.2247 10.4638 47.2247 9.43973 47.2247 8.52945C47.2247 8.30188 47.2247 8.18809 47.2247 7.96052C43.8111 8.52945 41.5354 11.8292 41.8768 14.4463C46.0868 14.4463 50.4107 14.4463 54.6208 14.4463C54.8483 11.3741 52.3451 8.30188 49.2728 7.96052ZM24.8089 18.315C29.5879 18.315 34.2531 18.315 39.0321 18.315C39.0321 17.7461 39.0321 17.1772 39.0321 16.6082C34.2531 16.6082 29.5879 16.6082 24.8089 16.6082C24.8089 17.1772 24.8089 17.7461 24.8089 18.315ZM41.0803 18.315C45.8593 18.315 50.6383 18.315 55.3035 18.315C55.3035 17.7461 55.3035 17.1772 55.3035 16.6082C50.5245 16.6082 45.8593 16.6082 41.0803 16.6082C41.0803 17.1772 41.0803 17.7461 41.0803 18.315ZM39.1459 20.4769C39.1459 21.6148 39.1459 22.6389 39.1459 23.7767C39.1459 24.9146 38.9184 26.0524 38.3494 27.0765C38.0081 27.7592 37.5529 28.3281 37.2116 28.8971C39.1459 29.6936 41.0803 29.6936 43.1284 28.8971C41.3079 27.0765 40.9665 24.9146 41.0803 22.5251C41.0803 21.8424 41.0803 21.2734 41.0803 20.5907C40.3976 20.4769 39.8286 20.4769 39.1459 20.4769ZM18.2094 33.4485C18.0956 33.5623 17.9818 33.5623 17.9818 33.6761C16.7302 34.7001 16.1612 36.1793 16.1612 37.7723C16.1612 40.2756 16.1612 42.6651 16.1612 45.1684C16.1612 45.2822 16.1612 45.396 16.1612 45.6235C16.844 45.6235 17.5267 45.6235 18.3232 45.6235C18.2094 41.5273 18.2094 37.5448 18.2094 33.4485ZM61.903 33.4485C61.903 37.5448 61.903 41.5273 61.903 45.5098C62.5858 45.5098 63.2685 45.5098 63.9512 45.5098C63.9512 42.7789 63.9512 40.048 63.9512 37.3172C63.9512 35.7242 63.2685 34.4726 61.903 33.4485ZM45.5179 33.4485C45.5179 37.5448 45.5179 41.5273 45.5179 45.5098C46.2006 45.5098 46.8833 45.5098 47.5661 45.5098C47.5661 45.396 47.5661 45.2822 47.5661 45.0546C47.5661 42.5513 47.5661 40.1618 47.5661 37.6586C47.5661 37.2034 47.5661 36.6345 47.4523 36.1793C47.2247 35.1553 46.542 34.245 45.5179 33.4485ZM30.1569 30.9452C30.1569 31.059 30.1569 31.059 30.1569 31.1728C30.1569 31.8555 30.1569 32.5382 30.1569 33.1071C30.1569 34.0174 30.8396 34.7001 31.7499 34.8139C32.5464 34.9277 33.4566 34.3588 33.5704 33.5623C33.6842 32.652 33.6842 31.8555 33.6842 30.9452C33.0015 31.059 32.4326 31.059 31.8636 31.059C31.2947 31.059 30.7258 30.9452 30.1569 30.9452ZM46.4282 30.9452C46.3144 31.2866 46.4282 31.5141 46.7696 31.8555C47.3385 32.3106 47.7936 32.7658 48.2488 33.3347C48.5901 33.6761 48.8177 34.1312 49.0453 34.5863C49.9556 34.1312 50.2969 32.5382 49.9556 31.059C48.8177 30.9452 47.6798 30.9452 46.4282 30.9452Z" fill="#555555"/>
<path d="M38.8061 39.2513C38.2372 39.2513 37.5544 39.2513 36.9855 39.2513C36.3028 39.2513 35.8477 38.7961 35.8477 38.2272C35.8477 37.6583 36.3028 37.2031 36.9855 37.2031C38.2372 37.2031 39.4888 37.2031 40.6266 37.2031C41.3094 37.2031 41.7645 37.6583 41.7645 38.2272C41.7645 38.7961 41.3094 39.2513 40.6266 39.2513C40.0577 39.2513 39.4888 39.2513 38.8061 39.2513Z" fill="#555555"/>
<path d="M23.3288 37.5449C23.8977 37.5449 24.3528 38.0001 24.3528 38.569C24.3528 39.1379 23.8977 39.5931 23.3288 39.5931C22.7598 39.5931 22.3047 39.1379 22.3047 38.569C22.3047 38.0001 22.7598 37.5449 23.3288 37.5449Z" fill="#555555"/>
<path d="M55.1894 39.2513C54.6205 39.2513 53.9378 39.2513 53.3688 39.2513C52.6861 39.2513 52.1172 38.7961 52.1172 38.2272C52.1172 37.6583 52.5723 37.2031 53.3688 37.2031C54.6205 37.2031 55.7583 37.2031 57.01 37.2031C57.6927 37.2031 58.2616 37.6583 58.1478 38.2272C58.1478 38.7961 57.6927 39.2513 57.01 39.2513H56.8962C56.3273 39.2513 55.7583 39.2513 55.1894 39.2513Z" fill="#555555"/>
</g>
<defs>
<clipPath id="clip0_241_22744">
<rect width="52" height="52" fill="white" transform="translate(14 0.336914)"/>
</clipPath>
</defs>
</svg>
