<svg width="69" height="53" viewBox="0 0 69 53" fill="none" xmlns="http://www.w3.org/2000/svg">
<circle cx="24.9731" cy="28.5317" r="24.3247" fill="#04A756" fill-opacity="0.08"/>
<g clip-path="url(#clip0_241_22776)">
<path d="M19.0497 52.2471C18.3669 52.0195 17.6842 51.6781 17.2291 50.9954C16.7739 50.4265 16.6602 49.7438 16.6602 49.0611C16.6602 44.5097 16.6602 39.9582 16.6602 35.4068C16.6602 24.8247 16.6602 14.2427 16.6602 3.66064C16.6602 1.72628 18.0256 0.24707 20.0737 0.24707C33.3866 0.24707 46.5858 0.24707 59.8987 0.24707C61.4917 0.24707 62.6295 1.15735 63.0847 2.63657C63.0847 2.75035 63.1985 2.86414 63.1985 2.97792C63.1985 4.91228 63.1985 6.84663 63.1985 8.6672C63.1985 9.23613 62.8571 9.57749 62.2882 9.69127C61.833 9.80506 61.3779 9.4637 61.1503 9.00856C61.1503 8.78099 61.1503 8.6672 61.1503 8.43963C61.1503 6.84663 61.1503 5.25363 61.1503 3.66064C61.1503 2.63657 60.809 2.29521 59.7849 2.29521C46.5858 2.29521 33.3866 2.29521 20.1875 2.29521C19.0497 2.409 18.7083 2.75035 18.7083 3.66064C18.7083 18.6803 18.7083 33.8138 18.7083 48.8335C18.7083 49.7438 19.0497 50.1989 20.0737 50.1989C33.2729 50.1989 46.5858 50.1989 59.7849 50.1989C60.6952 50.1989 61.1503 49.8576 61.1503 48.8335C61.1503 48.037 61.1503 47.2405 61.1503 46.444C61.1503 45.7613 61.6055 45.3061 62.1744 45.3061C62.7433 45.3061 63.1985 45.7613 63.1985 46.444C63.1985 47.3543 63.1985 48.1508 63.1985 49.0611C63.1985 50.5403 62.402 51.5644 61.0365 52.1333C60.9227 52.1333 60.809 52.2471 60.809 52.2471C46.8133 52.2471 32.9315 52.2471 19.0497 52.2471Z" fill="#555555"/>
<path d="M48.5156 25.1596L49.0625 22.5812L49.3755 21.2529L48.5156 19.9247L49.3755 18.2057L50.3912 17.4244V15.6273L51.7976 15.0022L53.3603 14.299L54.2198 13.4396L55.6262 12.5801L57.5795 13.4396L58.9859 12.9707L60.0016 12.5801L61.2518 13.4396L62.2675 14.299L64.299 15.0022L65.3147 16.1742L65.7054 17.815L66.8774 18.2057L67.5025 19.9247L66.8774 21.2529V22.5812L67.5025 24.3783L66.8774 25.7065L65.7054 26.9567L65.3147 28.9882L63.8302 29.6914L62.2675 30.3164L60.7049 32.1916L58.9859 31.5666H57.0326H55.0011L53.3603 30.3164L51.4069 28.9882L50.3912 27.3474L48.5156 25.1596Z" fill="#00D169"/>
<path d="M68.5457 24.8248C68.2044 25.7351 67.7492 26.4178 66.8389 26.9867C66.6114 27.1005 66.4976 27.5557 66.3838 27.897C66.27 28.8073 66.0424 29.6038 65.3597 30.1727C64.7908 30.6279 64.2219 30.8554 63.4254 30.9692C62.6289 30.9692 61.9462 31.7657 61.9462 32.5622C61.9462 35.5206 61.9462 38.3653 61.9462 41.3237C61.9462 41.8926 61.8324 42.3478 61.3772 42.5754C60.8083 42.8029 60.3532 42.5754 60.0118 42.1202C59.2153 41.3237 58.5326 40.641 57.7361 39.7307C56.9396 40.5272 56.1431 41.3237 55.3466 42.1202C55.0052 42.4616 54.7777 42.6891 54.3225 42.5754C53.7536 42.4616 53.526 42.0064 53.526 41.4375C53.526 38.4791 53.526 35.5206 53.526 32.5622C53.526 31.6519 52.8433 30.9692 51.933 30.9692C50.4538 30.9692 49.316 29.8314 49.2022 28.3522C49.2022 28.1246 49.0884 27.897 49.0884 27.5557C48.8608 27.5557 48.6332 27.5557 48.5195 27.5557C42.2612 27.5557 36.003 27.5557 29.6311 27.5557C28.8346 27.5557 28.3794 27.2143 28.3794 26.5316C28.3794 25.9627 28.7208 25.6213 29.2897 25.5075C29.4035 25.5075 29.6311 25.5075 29.7448 25.5075C35.3203 25.5075 40.8958 25.5075 46.4713 25.5075C46.6989 25.5075 46.9265 25.5075 47.154 25.5075C46.8127 24.4835 46.9265 23.5732 47.4954 22.6629C47.2678 22.6629 47.0402 22.6629 46.9265 22.6629C41.1234 22.6629 35.3203 22.6629 29.5173 22.6629C28.7208 22.6629 28.3794 22.3215 28.2656 21.6388C28.2656 21.0699 28.607 20.6147 29.1759 20.6147C29.2897 20.6147 29.5173 20.6147 29.6311 20.6147C35.2065 20.6147 40.6683 20.6147 46.2437 20.6147C46.4713 20.6147 46.6989 20.6147 46.9265 20.6147C46.9265 20.2734 46.9265 20.0458 46.9265 19.8182C47.0402 18.908 47.4954 18.2252 48.2919 17.7701C48.747 17.5425 49.0884 17.2012 48.9746 16.6322C48.9746 15.0393 50.2262 13.6738 52.0468 13.6738C52.502 13.6738 52.8433 13.3325 53.0709 12.9911C53.8674 11.8533 55.119 11.3981 56.4844 11.7395C56.5982 11.7395 56.712 11.8533 56.8258 11.8533C57.3947 12.1946 57.8499 12.1946 58.5326 11.8533C59.7842 11.1705 61.3772 11.6257 62.1737 12.8773C62.5151 13.4463 62.8564 13.6738 63.5392 13.6738C65.0184 13.7876 66.1562 14.9255 66.27 16.4047C66.27 16.9736 66.4976 17.4287 67.0665 17.7701C67.7492 18.2252 68.0906 18.908 68.3181 19.7045C68.3181 20.0458 68.3181 20.501 68.3181 20.8423C68.0906 21.1837 67.9768 21.6388 67.7492 21.9802C67.6354 22.2077 67.7492 22.4353 67.7492 22.6629C67.863 23.118 68.0906 23.4594 68.2044 23.8007C68.5457 24.0283 68.5457 24.3697 68.5457 24.8248ZM59.898 30.8554C60.3532 30.8554 60.6945 30.5141 60.8083 30.1727C61.3772 29.2624 62.1737 28.8073 63.3116 28.8073C64.1081 28.8073 64.3356 28.4659 64.4494 27.7832C64.4494 26.6454 65.0184 25.8489 65.9286 25.1662C66.6114 24.711 66.7251 24.3697 66.3838 23.687C65.9286 22.6629 65.8149 21.7526 66.3838 20.7285C66.7251 19.932 66.6114 19.5907 65.9286 19.1355C65.0184 18.5666 64.5632 17.7701 64.4494 16.746C64.3356 15.722 64.2219 15.6082 63.1978 15.4944C62.1737 15.3806 61.491 14.9255 60.9221 14.129C60.4669 13.3325 60.1256 13.2187 59.3291 13.6738C58.5326 14.129 57.7361 14.129 56.9396 13.7876C55.6879 13.3325 55.6879 13.3325 54.7777 14.3565C54.2087 15.0393 53.4122 15.3806 52.3882 15.4944C51.7055 15.4944 51.3641 15.8358 51.3641 16.5185C51.3641 17.6563 50.7952 18.5666 49.8849 19.1355C49.2022 19.4769 49.2022 19.932 49.5435 20.6147C50.1125 21.6388 50.1125 22.5491 49.5435 23.5732C49.2022 24.2559 49.316 24.5972 49.8849 25.0524C50.909 25.6213 51.3641 26.5316 51.3641 27.6694C51.3641 28.3522 51.7055 28.6935 52.5019 28.6935C53.526 28.6935 54.4363 29.1487 55.0052 30.0589C55.4604 30.7417 55.8017 30.8554 56.5982 30.5141C57.5085 30.0589 58.4188 30.0589 59.4429 30.5141C59.4429 30.6279 59.6704 30.7417 59.898 30.8554ZM55.5742 38.8204C55.6879 38.8204 55.6879 38.8204 55.5742 38.8204C56.0293 38.4791 56.4844 38.0239 56.8258 37.6826C57.5085 36.9999 57.9637 36.9999 58.6464 37.6826C59.1015 38.1377 59.4429 38.4791 59.898 39.048C59.898 36.8861 59.898 34.9517 59.898 33.1312C59.3291 32.9036 58.7602 32.676 58.1912 32.5622C57.8499 32.4484 57.5085 32.4484 57.2809 32.5622C56.712 32.676 56.1431 33.0174 55.4604 33.2449C55.5742 34.8379 55.5742 36.8861 55.5742 38.8204Z" fill="#555555"/>
<path d="M56.1421 7.30205C45.2187 7.30205 34.4091 7.30205 23.4856 7.30205C23.4856 7.52962 23.4856 7.6434 23.4856 7.87097C23.4856 14.243 23.4856 20.615 23.4856 26.9869C23.4856 27.2145 23.4856 27.3283 23.4856 27.5559C23.3719 28.011 22.9167 28.4662 22.4616 28.4662C22.0064 28.4662 21.5513 28.1248 21.4375 27.5559C21.4375 27.4421 21.4375 27.2145 21.4375 27.1007C21.4375 20.2736 21.4375 13.4465 21.4375 6.61933C21.4375 5.59526 21.7789 5.25391 22.8029 5.25391C34.1815 5.25391 45.4463 5.25391 56.8248 5.25391C57.8489 5.25391 58.1902 5.59526 58.1902 6.61933C58.1902 7.41583 58.1902 8.09854 58.1902 8.89504C58.1902 9.57776 57.7351 10.0329 57.1662 10.0329C56.5972 10.0329 56.1421 9.57776 56.1421 8.89504C56.1421 8.66747 56.1421 8.4399 56.1421 8.09855C56.1421 7.75719 56.1421 7.52962 56.1421 7.30205Z" fill="#555555"/>
<path d="M23.4851 45.3062C34.4086 45.3062 45.2182 45.3062 56.1416 45.3062C56.1416 44.8511 56.1416 44.5097 56.1416 44.1684C56.1416 43.5995 56.5967 43.1443 57.1657 43.1443C57.7346 43.1443 58.1897 43.5995 58.1897 44.1684C58.1897 44.8511 58.1897 45.6476 58.1897 46.3303C58.1897 46.8992 57.7346 47.3544 57.1657 47.3544C57.0519 47.3544 56.9381 47.3544 56.8243 47.3544C45.5595 47.3544 34.181 47.3544 22.9162 47.3544C21.7784 47.3544 21.5508 47.013 21.5508 45.989C21.5508 42.4616 21.5508 38.8205 21.5508 35.2931C21.5508 34.7242 21.6646 34.3828 22.2335 34.1553C22.9162 33.9277 23.5989 34.3828 23.5989 35.1793C23.5989 36.7723 23.5989 38.3653 23.5989 39.9583C23.4851 41.6651 23.4851 43.4857 23.4851 45.3062Z" fill="#555555"/>
<path d="M41.5771 32.221C39.7566 32.221 37.8222 32.221 36.0016 32.221C35.2051 32.221 34.75 31.8796 34.75 31.1969C34.75 30.5142 35.2051 30.1729 36.0016 30.1729C39.7566 30.1729 43.5115 30.1729 47.2664 30.1729C47.9491 30.1729 48.2905 30.5142 48.4043 31.0831C48.5181 31.5383 48.1767 31.9934 47.7216 32.221C47.494 32.3348 47.3802 32.3348 47.1526 32.3348C45.2183 32.221 43.3977 32.221 41.5771 32.221Z" fill="#555555"/>
<path d="M41.9184 38.2511C41.5771 38.5925 41.4633 38.9338 41.1219 39.1614C40.6668 39.6166 40.0979 39.6166 39.6427 39.1614C39.3014 38.8201 39.3014 38.1373 39.6427 37.6822C39.8703 37.3408 40.2117 37.1133 40.553 36.7719C41.3495 36.0892 42.3736 36.0892 43.1701 36.7719C43.6252 37.2271 43.9666 37.6822 44.4217 38.2511C45.1044 37.4546 45.7872 36.8857 46.3561 36.3168C46.6974 35.9754 46.925 35.7478 47.3802 35.8616C48.0629 36.0892 48.518 36.7719 47.9491 37.3408C47.1526 38.2511 46.3561 39.0476 45.4458 39.8441C44.7631 40.4131 43.739 40.1855 42.9425 39.6166C42.8287 39.2752 42.3736 38.8201 41.9184 38.2511Z" fill="#555555"/>
<path d="M34.5234 12.3086C35.3199 12.3086 36.1164 12.3086 36.7992 12.3086C37.4819 12.3086 37.937 12.7637 37.937 13.3327C37.937 13.9016 37.4819 14.3567 36.7992 14.3567C35.2062 14.3567 33.7269 14.3567 32.1339 14.3567C31.4512 14.3567 30.9961 13.9016 30.9961 13.3327C30.9961 12.7637 31.4512 12.3086 32.1339 12.3086C33.0442 12.3086 33.8407 12.3086 34.5234 12.3086Z" fill="#555555"/>
<path d="M29.2903 13.3327C29.2903 13.9016 28.8352 14.3567 28.2663 14.3567C27.6973 14.3567 27.2422 13.9016 27.2422 13.3327C27.2422 12.7637 27.6973 12.3086 28.2663 12.3086C28.8352 12.3086 29.2903 12.7637 29.2903 13.3327Z" fill="#555555"/>
<path d="M22.4616 30.1729C23.0305 30.1729 23.4856 30.628 23.4856 31.1969C23.4856 31.7659 23.0305 32.221 22.4616 32.221C21.8926 32.221 21.4375 31.7659 21.4375 31.1969C21.5513 30.628 22.0064 30.1729 22.4616 30.1729Z" fill="#555555"/>
<path d="M57.7345 22.7769C58.8723 21.639 59.8964 20.615 60.9204 19.5909C61.0342 19.4771 61.2618 19.2495 61.3756 19.1358C61.7169 18.9082 62.2859 19.022 62.6272 19.2496C62.9686 19.5909 63.0824 20.046 62.8548 20.5012C62.741 20.615 62.6272 20.8425 62.5134 20.9563C61.2618 22.208 60.0102 23.4596 58.7585 24.7113C58.0758 25.394 57.6207 25.2802 56.938 24.7113C56.369 24.1423 55.8001 23.5734 55.2312 23.0045C54.6622 22.4355 54.6622 21.8666 55.1174 21.4115C55.5725 20.9563 56.1415 21.0701 56.7104 21.5253C57.0517 21.8666 57.3931 22.3218 57.7345 22.7769Z" fill="#555555"/>
</g>
<defs>
<clipPath id="clip0_241_22776">
<rect width="52" height="52" fill="white" transform="translate(16.543 0.24707)"/>
</clipPath>
</defs>
</svg>
