<svg width="69" height="53" viewBox="0 0 69 53" fill="none" xmlns="http://www.w3.org/2000/svg">
<circle cx="24.4731" cy="28.6216" r="24.3247" fill="#04A756" fill-opacity="0.08"/>
<g clip-path="url(#clip0_241_22800)">
<path d="M54.3281 30.1391V22.5889H62.7419L66.517 30.1391H54.3281Z" fill="#00D169"/>
<path d="M16.043 9.54924C16.043 9.42803 16.1642 9.30682 16.1642 9.18561C16.649 7.97349 17.7399 7.125 19.0733 7.125C28.7702 7.125 38.346 7.125 48.043 7.125C49.7399 7.125 51.0733 8.45833 51.0733 10.1553C51.0733 12.3371 51.0733 14.5189 51.0733 16.5795C51.0733 16.822 51.0733 16.9432 51.0733 17.1856C51.3157 17.1856 51.4369 17.1856 51.6793 17.1856C54.2248 17.1856 56.8914 17.1856 59.4369 17.1856C60.7702 17.1856 61.7399 17.7917 62.346 18.8826C64.1642 22.3977 65.8611 25.9129 67.6793 29.5492C67.9218 29.9129 67.9218 30.3977 67.9218 30.7614C67.9218 32.5795 67.9218 34.3977 67.9218 36.3371C67.9218 37.6705 67.3157 38.6401 66.2248 39.2462C66.1036 39.3674 65.9824 39.4886 65.9824 39.6098C65.9824 41.0644 65.4975 42.2765 64.5278 43.3674C64.5278 43.3674 64.5278 43.3674 64.5278 43.4886C65.2551 43.4886 66.1036 43.4886 66.8308 43.4886C67.5581 43.4886 67.9218 43.8523 67.9218 44.4583C67.9218 45.0644 67.4369 45.5492 66.7096 45.5492C50.2248 45.5492 33.7399 45.5492 17.2551 45.5492C16.7702 45.5492 16.4066 45.3068 16.043 44.9432C16.043 44.7008 16.043 44.4583 16.043 44.0947C16.4066 43.6098 16.8915 43.4886 17.4975 43.4886C19.3157 43.4886 21.2551 43.4886 23.0733 43.4886C23.1945 43.4886 23.4369 43.4886 23.6793 43.4886C22.7096 42.2765 22.2248 40.9432 22.1036 39.4886C21.0127 39.4886 20.043 39.4886 19.0733 39.4886C17.8612 39.4886 17.0127 38.8826 16.4066 37.9129C16.2854 37.6705 16.1642 37.3068 16.043 37.0644C16.043 27.9735 16.043 18.7614 16.043 9.54924ZM49.0127 37.5492C49.0127 37.3068 49.0127 37.1856 49.0127 36.9432C49.0127 28.0947 49.0127 19.3674 49.0127 10.5189C49.0127 9.42803 48.649 9.06439 47.5581 9.06439C38.2248 9.06439 28.7702 9.06439 19.4369 9.06439C18.346 9.06439 17.9824 9.42803 17.9824 10.5189C17.9824 16.5795 17.9824 22.6402 17.9824 28.822C17.9824 28.9432 17.9824 29.1856 17.9824 29.428C18.9521 29.428 19.9218 29.428 20.7702 29.428C21.6187 29.428 21.9824 29.7917 21.9824 30.6402C21.9824 31.8523 21.9824 33.0644 21.9824 34.2765C21.9824 35.125 21.6187 35.4886 20.7702 35.4886C19.8005 35.4886 18.9521 35.4886 17.9824 35.4886C17.9824 35.7311 17.9824 35.9735 17.9824 36.2159C17.9824 37.1856 18.346 37.5492 19.3157 37.5492C20.1642 37.5492 21.0127 37.5492 21.8612 37.5492C22.2248 37.5492 22.346 37.428 22.4672 37.0644C23.5581 34.7614 25.3763 33.5492 27.9218 33.428C30.5884 33.428 32.4066 34.6402 33.4975 36.9432C33.6187 37.3068 33.8611 37.428 34.2248 37.428C38.9521 37.428 43.5581 37.428 48.2854 37.428C48.649 37.5492 48.7702 37.5492 49.0127 37.5492ZM65.8611 31.3674C65.6187 31.3674 65.3763 31.3674 65.2551 31.3674C61.6187 31.3674 57.9824 31.3674 54.2248 31.3674C53.4975 31.3674 53.1339 31.0038 53.1339 30.2765C53.1339 27.6098 53.1339 25.0644 53.1339 22.3977C53.1339 21.6705 53.4975 21.3068 54.346 21.3068C56.4066 21.3068 58.5884 21.3068 60.649 21.3068C60.7702 21.3068 61.0127 21.3068 61.2551 21.3068C61.0127 20.822 60.8914 20.4583 60.649 20.0947C60.4066 19.4886 59.9218 19.2462 59.3157 19.2462C56.7702 19.2462 54.2248 19.2462 51.6793 19.2462C51.5581 19.2462 51.3157 19.2462 51.1945 19.2462C51.1945 25.3068 51.1945 31.3674 51.1945 37.428C52.043 37.428 53.0127 37.428 53.8611 37.428C53.9824 37.428 54.2248 37.1856 54.346 37.0644C55.4369 34.8826 57.1339 33.5492 59.5581 33.428C62.2248 33.3068 64.1642 34.5189 65.3763 36.822C65.3763 36.9432 65.4975 37.0644 65.6187 37.3068C65.7399 36.9432 65.8611 36.7008 65.9824 36.4583C65.8611 34.8826 65.8611 33.1856 65.8611 31.3674ZM32.7702 43.4886C40.2854 43.4886 47.6793 43.4886 55.0733 43.4886C54.7096 42.8826 54.346 42.2765 54.1036 41.6704C53.8611 41.0644 53.7399 40.3371 53.6187 39.6098C47.1945 39.6098 40.7702 39.6098 34.346 39.6098C34.2248 41.0644 33.7399 42.3977 32.7702 43.4886ZM55.1945 23.3674C55.1945 25.428 55.1945 27.3674 55.1945 29.428C58.5884 29.428 61.8611 29.428 65.1339 29.428V29.3068C64.1642 27.3674 63.1945 25.428 62.2248 23.6098C62.2248 23.4886 61.9824 23.3674 61.8611 23.3674C59.6793 23.3674 57.4975 23.3674 55.1945 23.3674ZM55.6793 39.4886C55.6793 41.6705 57.4975 43.4886 59.6793 43.4886C61.8611 43.4886 63.8005 41.6705 63.8005 39.4886C63.8005 37.3068 61.9824 35.4886 59.8005 35.4886C57.6187 35.4886 55.6793 37.3068 55.6793 39.4886ZM32.2854 39.4886C32.2854 37.3068 30.4672 35.4886 28.2854 35.3674C26.1036 35.3674 24.1642 37.1856 24.1642 39.3674C24.1642 41.5492 25.9824 43.3674 28.1642 43.4886C30.346 43.6098 32.2854 41.7917 32.2854 39.4886ZM18.1036 31.4886C18.1036 32.2159 18.1036 32.822 18.1036 33.428C18.8308 33.428 19.4369 33.428 20.043 33.428C20.043 32.7008 20.043 32.0947 20.043 31.4886C19.4369 31.4886 18.7096 31.4886 18.1036 31.4886Z" fill="#555555"/>
<path d="M37.6169 15.246C35.5563 15.246 33.3745 15.246 31.3139 15.246C30.7078 15.246 30.3442 14.8824 30.223 14.3976C30.1018 13.9127 30.4654 13.4279 30.8291 13.3066C30.9503 13.3066 31.1927 13.3066 31.3139 13.3066C35.4351 13.3066 39.5563 13.3066 43.7988 13.3066C44.526 13.3066 45.0109 13.6703 45.0109 14.2763C45.0109 14.8824 44.526 15.246 43.7988 15.246C41.7381 15.246 39.6775 15.246 37.6169 15.246Z" fill="#555555"/>
<path d="M39.5599 19.246C38.2266 19.246 36.772 19.246 35.4387 19.246C34.7114 19.246 34.2266 18.8824 34.2266 18.2763C34.2266 17.6703 34.5902 17.3066 35.4387 17.3066C38.2266 17.3066 41.0144 17.3066 43.8023 17.3066C44.5296 17.3066 45.0144 17.6703 45.0144 18.2763C45.0144 18.8824 44.5296 19.246 43.8023 19.246C42.469 19.246 41.0144 19.246 39.5599 19.246Z" fill="#555555"/>
<path d="M27.1954 13.1855C27.8015 13.1855 28.1651 13.6704 28.1651 14.1552C28.1651 14.7613 27.6803 15.1249 27.1954 15.1249C26.5894 15.1249 26.2257 14.6401 26.2257 14.1552C26.1045 13.6704 26.5894 13.1855 27.1954 13.1855Z" fill="#555555"/>
<path d="M57.7422 39.4883C57.7422 38.3974 58.5907 37.4277 59.8028 37.4277C60.8937 37.4277 61.8634 38.2762 61.8634 39.4883C61.8634 40.7005 61.0149 41.5489 59.8028 41.5489C58.5907 41.5489 57.7422 40.7005 57.7422 39.4883Z" fill="#555555"/>
<path d="M26.2251 39.4887C26.2251 38.3978 27.0736 37.4281 28.2857 37.5493C29.3766 37.5493 30.3463 38.3978 30.3463 39.6099C30.3463 40.8221 29.4978 41.6705 28.2857 41.6705C27.0736 41.5493 26.1039 40.5796 26.2251 39.4887Z" fill="#555555"/>
</g>
<defs>
<clipPath id="clip0_241_22800">
<rect width="52" height="52" fill="white" transform="translate(16.043 0.336914)"/>
</clipPath>
</defs>
</svg>
