<svg width="70" height="53" viewBox="0 0 70 53" fill="none" xmlns="http://www.w3.org/2000/svg">
<circle cx="24.3247" cy="25.2573" r="24.3247" fill="#04A756" fill-opacity="0.08"/>
<g clip-path="url(#clip0_241_22670)">
<path d="M52.9551 19.958L51.1641 16.434V1.33105H66.9947V18.2799L65.2606 20.5733L62.4078 22.6989L59.3873 22.9786L55.6954 22.1396L52.9551 19.958Z" fill="#00D169"/>
<path d="M60.2975 52.0903C59.6148 52.0903 58.9321 52.0903 58.2494 52.0903C58.1356 52.0903 58.1356 51.9765 58.0218 51.9765C55.9737 51.6352 54.2669 50.8387 52.7877 49.3595C52.2188 48.7905 51.7636 47.994 51.1947 47.4251C51.1947 47.5389 51.0809 47.5389 50.9671 47.6527C49.8293 49.587 48.1225 50.9525 45.8468 51.6352C45.2778 51.8627 44.7089 51.8627 44.14 52.0903C43.4573 52.0903 42.7746 52.0903 42.0919 52.0903C41.9781 52.0903 41.8643 51.9765 41.7505 51.9765C39.9299 51.6352 38.2231 50.9525 36.9715 49.587C36.2888 48.9043 35.7199 48.1078 35.1509 47.4251C35.1509 47.4251 35.0371 47.5389 35.0371 47.6527C33.8993 49.587 32.1925 50.9525 30.0306 51.749C29.4617 51.9765 28.8927 51.9765 28.3238 52.2041C27.6411 52.2041 26.9584 52.2041 26.2757 52.2041C26.1619 52.2041 26.0481 52.0903 26.0481 52.0903C22.6345 51.6352 19.6761 49.0181 18.652 45.7183C18.3107 44.0115 18.4245 42.5323 18.4245 40.9393C18.4245 27.854 18.4245 14.7687 18.4245 1.68331C18.4245 0.545458 18.7658 0.204102 19.7899 0.204102C35.4923 0.204102 51.3085 0.204102 67.0109 0.204102C67.9212 0.204102 68.3763 0.545458 68.3763 1.56953C68.3763 15.3376 68.3763 29.2194 68.3763 42.9875C68.3763 47.0838 65.9868 50.3835 62.2319 51.6352C61.5492 51.8627 60.8665 51.9765 60.2975 52.0903ZM20.5864 2.25224C20.5864 2.36603 20.5864 2.5936 20.5864 2.70738C20.5864 6.91745 20.5864 11.0137 20.5864 15.2238C20.5864 15.6789 20.7002 16.1341 20.7002 16.5892C21.3829 20.1166 24.9102 22.5061 28.4376 21.9371C31.6236 21.482 34.2406 18.6374 34.2406 15.4514C34.2406 11.1275 34.2406 6.91745 34.2406 2.5936C34.2406 2.47981 34.2406 2.36603 34.2406 2.25224C29.6892 2.25224 25.1378 2.25224 20.5864 2.25224ZM36.4026 2.25224C36.4026 2.47981 36.4026 2.5936 36.4026 2.70738C36.4026 6.80366 36.4026 11.0137 36.4026 15.11C36.4026 15.4514 36.4026 15.9065 36.5164 16.2479C37.0853 20.0028 41.0678 22.7336 44.7089 21.9371C48.0087 21.1406 50.1706 18.4098 50.1706 15.11C50.1706 11.0137 50.1706 6.91745 50.1706 2.82117C50.1706 2.70738 50.1706 2.47981 50.1706 2.36603C45.6192 2.25224 41.0678 2.25224 36.4026 2.25224ZM52.4463 2.25224C52.4463 2.47981 52.4463 2.5936 52.4463 2.70738C52.4463 6.80366 52.4463 10.8999 52.4463 15.11C52.4463 15.5652 52.4463 15.9065 52.5601 16.3617C53.1291 20.1166 57.1115 22.8474 60.7527 21.9371C64.0525 21.1406 66.2144 18.4098 66.2144 14.9962C66.2144 10.8999 66.2144 6.91745 66.2144 2.82117C66.2144 2.5936 66.2144 2.47981 66.2144 2.25224C61.5492 2.25224 56.9978 2.25224 52.4463 2.25224ZM36.4026 21.0269C36.4026 23.8715 36.4026 26.6024 36.4026 29.3332C36.4026 29.7883 36.4026 30.1297 36.5164 30.5848C37.1991 34.1122 40.4989 36.5017 44.0262 36.0466C47.4398 35.7052 50.1706 32.7468 50.1706 29.2194C50.1706 26.6024 50.1706 23.9853 50.1706 21.3682C50.1706 21.2544 50.1706 21.1406 50.1706 20.9131C46.6433 25.0093 40.3851 25.3507 36.4026 21.0269ZM66.2144 21.1406C61.663 25.2369 56.9978 25.2369 52.4463 21.1406C52.4463 23.6439 52.4463 26.261 52.4463 28.7643C52.4463 29.3332 52.4463 29.7883 52.5601 30.3573C53.1291 33.8846 56.5426 36.6155 60.1838 36.0466C63.7111 35.5914 66.2144 32.633 66.3282 29.1056C66.3282 26.4886 66.3282 23.9853 66.3282 21.3682C66.2144 21.3682 66.2144 21.2544 66.2144 21.1406ZM20.4726 21.0269C20.4726 23.6439 20.4726 26.261 20.4726 28.7643C20.4726 29.2194 20.4726 29.7883 20.5864 30.2435C21.0415 33.6571 24.2275 36.6155 28.21 36.0466C31.8512 35.5914 34.2406 32.7468 34.2406 29.1056C34.2406 26.6024 34.2406 24.0991 34.2406 21.5958C34.2406 21.482 34.2406 21.2544 34.2406 21.0269C30.4857 25.2369 24.2275 25.1231 20.4726 21.0269ZM20.4726 35.0225C20.4726 37.6395 20.4726 40.1428 20.4726 42.6461C20.4726 43.1013 20.4726 43.6702 20.5864 44.1253C21.0415 47.7665 24.6827 50.4973 28.3238 49.9284C31.8512 49.3595 34.2406 46.5148 34.2406 42.9875C34.2406 40.4842 34.2406 37.9809 34.2406 35.4776C34.2406 35.3638 34.2406 35.2501 34.2406 35.0225C30.8271 39.1188 24.4551 39.3463 20.4726 35.0225ZM66.2144 35.0225C64.28 37.1844 62.0043 38.2085 59.2735 38.2085C56.5426 38.2085 54.2669 37.0706 52.3326 35.0225C52.3326 35.2501 52.3326 35.3638 52.3326 35.4776C52.3326 37.9809 52.3326 40.598 52.3326 43.1013C52.3326 46.8562 55.291 49.8146 59.0459 49.9284C62.5732 50.0422 65.6455 47.4251 65.9868 44.0115C66.1006 42.8737 66.1006 41.622 66.1006 40.3704C66.2144 38.6636 66.2144 36.9568 66.2144 35.0225ZM36.4026 35.0225C36.4026 37.7533 36.4026 40.3704 36.4026 42.8737C36.4026 43.3288 36.4026 43.784 36.5164 44.2391C36.9715 47.6527 40.1575 50.6111 44.2538 49.9284C47.7811 49.4732 50.1706 46.5148 50.1706 42.9875C50.1706 40.4842 50.1706 37.9809 50.1706 35.5914C50.1706 35.4776 50.1706 35.2501 50.1706 35.0225C48.2363 37.1844 45.9606 38.2085 43.2297 38.2085C40.6126 38.2085 38.3369 37.0706 36.4026 35.0225Z" fill="#555555"/>
<path d="M63.2578 6.80369C63.2578 6.12097 63.2578 5.32448 63.2578 4.64176C63.2578 3.84526 63.5992 3.50391 64.2819 3.50391C64.9646 3.50391 65.306 3.95905 65.306 4.64176C65.306 6.12097 65.306 7.60019 65.306 9.19318C65.306 9.8759 64.8508 10.331 64.2819 10.331C63.713 10.331 63.2578 9.8759 63.2578 9.19318C63.2578 8.2829 63.2578 7.4864 63.2578 6.80369Z" fill="#555555"/>
<path d="M65.306 12.8342C65.306 13.4031 65.3059 14.0858 64.6232 14.3134C64.0543 14.541 63.3716 14.1996 63.2578 13.5169C63.2578 13.0618 63.2578 12.6066 63.2578 12.1515C63.2578 11.5826 63.713 11.2412 64.2819 11.2412C64.8508 11.2412 65.1922 11.5826 65.306 12.1515C65.306 12.3791 65.306 12.6066 65.306 12.8342Z" fill="#555555"/>
</g>
<defs>
<clipPath id="clip0_241_22670">
<rect width="52" height="52" fill="white" transform="translate(17.2891 0.0898438)"/>
</clipPath>
</defs>
</svg>
