<svg width="69" height="55" viewBox="0 0 69 55" fill="none" xmlns="http://www.w3.org/2000/svg">
<circle cx="25.1997" cy="29.9604" r="24.3247" fill="#04A756" fill-opacity="0.08"/>
<g clip-path="url(#clip0_241_22715)">
<circle cx="34.3857" cy="24.0186" r="3.54199" fill="#00D169"/>
<circle cx="42.5732" cy="11.6689" r="3.54199" fill="#00D169"/>
<circle cx="50.6123" cy="23.6318" r="3.54199" fill="#00D169"/>
<path d="M68.4981 36.1061C68.1976 36.7073 67.7467 36.8576 67.1456 36.8576C66.2438 36.8576 65.3421 36.8576 64.4403 36.8576C64.4403 37.0079 64.4403 37.3085 64.4403 37.4588C64.4403 41.216 64.4403 44.9732 64.4403 48.7304C64.4403 49.6322 64.1398 49.9327 63.238 49.9327C62.0357 49.9327 60.8334 49.9327 59.4808 49.9327C58.7294 49.9327 58.4288 49.4819 58.4288 48.8807C58.4288 47.5281 58.4288 46.3258 58.4288 44.9732C58.1282 44.9732 57.9779 44.9732 57.8276 44.9732C53.4692 44.9732 48.9606 44.9732 44.6022 44.9732C43.5502 44.9732 43.2496 44.6726 43.2496 43.6206C43.2496 42.7189 43.2496 41.8171 43.2496 40.9154C42.4981 40.9154 41.7467 40.9154 40.9953 40.9154C38.8912 41.0657 37.3883 39.4125 37.5386 37.4588C37.5386 37.3085 37.5386 37.1582 37.5386 36.8576C33.9317 36.8576 30.475 36.8576 26.8681 36.8576C26.8681 37.0079 26.8681 37.1582 26.8681 37.3085C26.8681 41.0657 26.8681 44.8229 26.8681 48.5801C26.8681 49.6322 26.5675 49.9327 25.5155 49.9327C24.3132 49.9327 23.1109 49.9327 21.9086 49.9327C21.1571 49.9327 20.7062 49.6322 20.7062 48.7304C20.7062 44.9732 20.7062 41.216 20.7062 37.4588C20.7062 37.3085 20.7062 37.0079 20.7062 36.8576C19.8045 36.8576 18.9028 36.8576 18.001 36.8576C16.949 36.8576 16.6484 36.557 16.6484 35.505C16.6484 34.3027 16.6484 33.1004 16.6484 31.8981C16.6484 31.1466 16.949 30.6957 17.8507 30.6957C18.7525 30.6957 19.8045 30.6957 20.7062 30.6957C20.7062 30.5455 20.7062 30.2449 20.7062 30.0946C20.7062 26.0368 20.7062 21.8287 20.7062 17.7709C20.7062 17.32 20.8565 17.0194 21.1571 16.7189C21.608 16.268 21.9086 15.6668 22.3594 15.216C21.4577 14.7651 20.556 14.3142 19.6542 13.8634C18.9028 13.5628 18.6022 12.9616 18.6022 12.2102C18.6022 10.557 18.6022 8.90383 18.6022 7.25065C18.6022 6.34892 19.3536 5.89805 20.1051 6.19863C22.2091 7.25066 24.4635 8.15239 26.5675 9.20441C27.0184 9.3547 27.1687 9.3547 27.4692 9.05412C29.1224 7.10037 30.7756 4.99632 32.4288 3.04256C32.7294 2.5917 33.1802 2.44141 33.6311 2.44141C34.9837 2.44141 36.3363 2.44141 37.8392 2.44141C38.4403 2.44141 39.0415 2.89227 39.0415 3.49343C39.0415 4.09459 38.5906 4.54545 37.8392 4.54545C36.6369 4.54545 35.5849 4.54545 34.3825 4.54545C34.2323 4.54545 33.9317 4.54545 33.9317 4.69574C32.4288 6.49921 30.7756 8.45297 29.2727 10.4067C32.1282 11.7593 34.9837 12.9616 38.1398 13.8634C37.5386 12.5108 37.5386 11.1582 38.1398 9.80557C38.5906 8.75355 39.1918 8.0021 40.0935 7.55123C41.897 6.34892 44.1513 6.49921 45.8045 7.70152C47.7583 9.05412 48.2091 11.0079 47.4577 14.0137C50.4635 13.1119 53.319 11.9096 56.1744 10.557C55.1224 9.3547 54.2207 8.15239 53.1687 6.95008C52.5675 6.34892 52.1166 5.59748 51.5155 4.99632C51.3652 4.84603 51.0646 4.69574 50.9143 4.69574C49.712 4.69574 48.5097 4.69574 47.3074 4.69574C46.7062 4.69574 46.1051 4.24487 46.2554 3.64372C46.2554 3.04256 46.7062 2.5917 47.3074 2.5917C48.8103 2.5917 50.1629 2.5917 51.6658 2.5917C52.1166 2.5917 52.4172 2.74198 52.7178 3.04256C54.371 4.99632 56.0242 7.10037 57.6773 9.05412C57.8276 9.3547 57.9779 9.3547 58.4288 9.20441C60.5328 8.15239 62.6369 7.25066 64.7409 6.19863C65.6427 5.74776 66.5444 6.34892 66.3941 7.25065C66.2438 8.90383 66.3941 10.7073 66.3941 12.3605C66.3941 12.9616 66.2438 13.2622 65.6427 13.5628C64.7409 14.0137 63.6889 14.6148 62.6369 15.0657C63.0877 15.5166 63.3883 16.1177 63.8392 16.5686C64.1398 16.8692 64.2901 17.1697 64.2901 17.6206C64.2901 21.6784 64.2901 25.7362 64.2901 29.9443C64.2901 30.0946 64.2901 30.3952 64.2901 30.6957C65.1918 30.6957 66.0935 30.6957 66.9953 30.6957C67.5964 30.6957 68.0473 30.846 68.3479 31.4472C68.4982 33.1004 68.4981 34.6033 68.4981 36.1061ZM62.3363 30.846C62.3363 30.5455 62.3363 30.3952 62.3363 30.2449C62.3363 26.7882 62.3363 23.4819 62.3363 20.0252C62.3363 18.6726 62.0357 17.4703 60.9837 16.5686C60.6831 16.4183 60.6831 16.268 60.3825 16.4183C58.4288 17.1697 56.6253 18.0715 54.6716 18.8229C54.2207 18.9732 53.7698 19.1235 53.1687 19.4241C56.0242 21.5281 56.0242 24.6842 54.8218 26.6379C53.4692 28.742 50.764 29.4934 48.5097 28.4414C47.3074 27.8403 46.556 27.0888 45.9548 25.8865C45.3536 24.3836 45.3536 22.8807 46.1051 21.5281C44.9028 21.6784 43.7005 21.8287 42.4981 21.8287C41.2958 21.8287 40.0935 21.6784 38.8912 21.5281C39.9432 24.5339 39.3421 26.9385 36.9375 28.2911C34.8334 29.4934 32.2785 29.1929 30.6253 27.2391C29.8739 26.3374 29.423 25.4356 29.423 24.3836C29.2727 22.2796 30.1744 20.7767 31.8276 19.7246C29.423 18.6726 27.0184 17.6206 24.6138 16.7189C24.4635 16.7189 24.1629 16.7189 24.1629 16.8692C23.8623 17.32 23.4114 17.6206 23.1109 18.0715C22.9606 18.372 22.8103 18.6726 22.8103 18.9732C22.8103 22.8807 22.8103 26.7882 22.8103 30.6957C22.8103 30.846 22.8103 30.9963 22.8103 31.2969C35.8854 30.846 49.1109 30.846 62.3363 30.846ZM64.4403 8.75354C64.2901 8.90383 64.1398 8.90383 63.9895 8.90383C61.7351 9.95586 59.4808 11.0079 57.2265 12.0599C53.6195 13.7131 49.8623 15.216 45.9548 16.268C44.4519 16.5686 42.949 16.8692 41.4461 16.7189C39.1918 16.4183 36.9375 15.8171 34.8334 15.0657C31.2265 13.5628 27.7698 12.0599 24.1629 10.557C22.9606 10.1061 21.9086 9.50499 20.7062 9.05412C20.7062 9.65528 20.7062 10.2564 20.7062 10.7073C20.4057 11.7593 20.8565 12.3605 22.0588 12.8113C27.4692 15.3663 32.8797 17.9212 38.7409 19.1235C40.845 19.5744 42.949 19.5744 45.2034 19.2738C47.608 18.9732 50.0126 18.2218 52.4172 17.4703C56.475 16.1177 60.3825 14.3142 64.1398 12.2102C64.2901 12.0599 64.4403 11.9096 64.4403 11.7593C64.4403 10.7073 64.4403 9.80557 64.4403 8.75354ZM18.6022 32.7998C18.6022 33.4009 18.6022 34.1524 18.6022 34.7535C34.5328 34.7535 50.4635 34.7535 66.2438 34.7535C66.2438 34.0021 66.2438 33.4009 66.2438 32.7998C50.4635 32.7998 34.5328 32.7998 18.6022 32.7998ZM58.2785 36.8576C53.9201 36.8576 49.5617 36.8576 45.2034 36.8576C45.2034 38.9616 45.2034 40.9154 45.2034 42.8692C49.5617 42.8692 53.9201 42.8692 58.2785 42.8692C58.2785 40.9154 58.2785 38.9616 58.2785 36.8576ZM45.5039 11.609C45.5039 9.95586 44.1513 8.60326 42.4981 8.60326C40.845 8.60326 39.4924 9.95586 39.4924 11.609C39.4924 13.2622 40.845 14.6148 42.4981 14.6148C44.1513 14.6148 45.5039 13.2622 45.5039 11.609ZM34.3825 20.6264C32.7294 20.6264 31.3768 21.979 31.3768 23.6322C31.3768 25.2853 32.7294 26.6379 34.3825 26.6379C36.0357 26.6379 37.3883 25.2853 37.3883 23.6322C37.3883 22.1293 36.0357 20.6264 34.3825 20.6264ZM50.6138 20.6264C48.9606 20.6264 47.608 21.979 47.608 23.6322C47.608 25.2853 48.9606 26.6379 50.6138 26.6379C52.2669 26.6379 53.6195 25.2853 53.6195 23.6322C53.6195 22.1293 52.2669 20.6264 50.6138 20.6264ZM24.6138 47.979C24.6138 44.2218 24.6138 40.6148 24.6138 36.8576C24.0126 36.8576 23.2612 36.8576 22.66 36.8576C22.66 40.6148 22.66 44.2218 22.66 47.979C23.4114 47.979 24.0126 47.979 24.6138 47.979ZM62.3363 36.8576C61.5849 36.8576 60.9837 36.8576 60.3825 36.8576C60.3825 40.6148 60.3825 44.2218 60.3825 47.979C60.9837 47.979 61.7351 47.979 62.3363 47.979C62.3363 44.2218 62.3363 40.6148 62.3363 36.8576ZM39.4924 36.8576C39.4924 37.1582 39.4924 37.609 39.4924 37.9096C39.4924 38.3605 39.7929 38.8114 40.3941 38.8114C41.2958 38.8114 42.1976 38.8114 43.0993 38.8114C43.0993 38.0599 43.0993 37.4587 43.0993 36.8576C41.897 36.8576 40.6947 36.8576 39.4924 36.8576Z" fill="#555555"/>
<path d="M42.4973 4.54545C41.8962 4.54545 41.4453 4.09459 41.4453 3.49343C41.4453 2.89227 41.8962 2.44141 42.4973 2.44141C43.0985 2.44141 43.5494 2.89227 43.5494 3.49343C43.5494 3.9443 43.0985 4.54545 42.4973 4.54545Z" fill="#555555"/>
<path d="M51.6649 40.9146C50.4626 40.9146 49.4106 40.9146 48.2083 40.9146C47.4568 40.9146 47.1562 40.4637 47.1562 39.8626C47.1562 39.2614 47.6071 38.8105 48.2083 38.8105C50.4626 38.8105 52.8672 38.8105 55.1216 38.8105C55.7227 38.8105 56.1736 39.2614 56.1736 39.8626C56.1736 40.4637 55.7227 40.9146 55.1216 40.9146C54.0695 40.9146 52.8672 40.9146 51.6649 40.9146Z" fill="#555555"/>
<path d="M43.5494 11.6086C43.5494 12.2098 43.0985 12.6606 42.4973 12.6606C41.8962 12.6606 41.4453 12.2098 41.4453 11.6086C41.4453 11.0074 41.8962 10.7069 42.4973 10.7069C43.0985 10.5566 43.5494 11.0074 43.5494 11.6086Z" fill="#555555"/>
<path d="M34.3841 24.6841C33.7829 24.6841 33.332 24.2332 33.332 23.632C33.332 23.0309 33.7829 22.58 34.3841 22.7303C34.9852 22.7303 35.2858 23.1812 35.2858 23.7823C35.4361 24.3835 34.9852 24.6841 34.3841 24.6841Z" fill="#555555"/>
<path d="M50.6145 22.7305C51.2157 22.7305 51.6665 23.1813 51.6665 23.7825C51.6665 24.3836 51.2157 24.8345 50.6145 24.8345C50.0134 24.8345 49.5625 24.3836 49.5625 23.7825C49.5625 23.1813 50.0134 22.7305 50.6145 22.7305Z" fill="#555555"/>
</g>
<defs>
<clipPath id="clip0_241_22715">
<rect width="52" height="52" fill="white" transform="translate(16.5 0.336914)"/>
</clipPath>
</defs>
</svg>
