<svg width="35" height="35" viewBox="0 0 35 35" fill="none" xmlns="http://www.w3.org/2000/svg">
<rect x="0.570312" y="0.0703125" width="33.8889" height="34.4184" rx="16.9444" fill="#04A756"/>
<path d="M14.2929 22.6919C15.2456 23.2355 16.345 23.544 17.5167 23.544C21.1181 23.544 24.045 20.6151 24.045 17.0144C24.045 13.4136 21.1181 10.4847 17.5167 10.4847H17.5139C13.9126 10.4847 10.9857 13.4128 10.9857 17.0144C10.9857 18.2752 11.345 19.4565 11.9686 20.4564L11.4029 22.1428L10.8494 23.7927L12.507 23.2628L14.2929 22.6919Z" fill="#04A756" stroke="white" stroke-width="1.76294"/>
<path d="M20.3282 19.7815L20.2803 19.8294C20.0414 20.0702 19.7212 20.2133 19.3824 20.2304H19.146C17.895 20.2304 16.8893 19.7635 15.8269 18.704C14.6985 17.5756 14.2436 16.5131 14.3065 15.1483H14.3064C14.3236 14.8095 14.4666 14.4894 14.7074 14.2504L14.7554 14.2025C15.0583 13.8983 15.4866 13.754 15.9119 13.8129C16.3372 13.8716 16.7103 14.1268 16.9193 14.5018L16.9852 14.6216H16.9851C17.0682 14.773 17.1001 14.9473 17.0758 15.1184C17.0515 15.2894 16.9724 15.448 16.8504 15.5704L16.4494 15.9714C16.6809 16.4171 16.9842 16.8215 17.3473 17.1686C17.6944 17.5316 18.0988 17.835 18.5445 18.0665L18.9425 17.6714C19.0677 17.5484 19.2299 17.47 19.4042 17.4484C19.5783 17.4267 19.7548 17.463 19.9063 17.5517L20.026 17.6176C20.4011 17.8266 20.6562 18.1996 20.715 18.6249C20.7738 19.0502 20.6295 19.4785 20.3253 19.7814L20.3282 19.7815Z" fill="white"/>
</svg>
