<svg width="35" height="35" viewBox="0 0 35 35" fill="none" xmlns="http://www.w3.org/2000/svg">
<rect x="0.273438" y="0.0703125" width="33.8889" height="34.4184" rx="16.9444" fill="#04A756"/>
<path d="M20.4871 25.3039H14.0516C12.794 25.3026 11.5884 24.8212 10.6992 23.9656C9.81005 23.1099 9.30992 21.9498 9.30859 20.7397L9.30859 14.5472C9.31001 13.3372 9.81017 12.1771 10.6993 11.3215C11.5885 10.4659 12.7941 9.98464 14.0516 9.98328H20.4871C21.7447 9.98456 22.9503 10.4658 23.8396 11.3214C24.7288 12.177 25.229 13.3371 25.2305 14.5472V20.7397C25.2291 21.9498 24.729 23.11 23.8397 23.9657C22.9505 24.8214 21.7447 25.3026 20.4871 25.3039ZM14.0516 11.5242C13.2187 11.5252 12.4202 11.844 11.8312 12.4107C11.2423 12.9774 10.911 13.7457 10.91 14.5472V20.7397C10.911 21.5411 11.2423 22.3094 11.8313 22.8761C12.4202 23.4427 13.2187 23.7615 14.0516 23.7623H20.4871C21.32 23.7615 22.1184 23.4427 22.7073 22.8761C23.2962 22.3094 23.6275 21.5411 23.6284 20.7397V14.5472C23.6275 13.7457 23.2963 12.9774 22.7074 12.4107C22.1185 11.844 21.32 11.5252 20.4871 11.5242H14.0516ZM17.2685 21.6055C16.4542 21.6052 15.6582 21.3726 14.9812 20.9371C14.3042 20.5015 13.7766 19.8826 13.4652 19.1586C13.1538 18.4345 13.0724 17.6379 13.2315 16.8694C13.3905 16.1009 13.7829 15.395 14.3588 14.841C14.9348 14.287 15.6685 13.9098 16.4672 13.7571C17.266 13.6043 18.0939 13.6829 18.8462 13.9829C19.5985 14.2829 20.2415 14.7908 20.6939 15.4424C21.1462 16.094 21.3876 16.86 21.3876 17.6436C21.3865 18.6942 20.9523 19.7014 20.1802 20.4443C19.4082 21.1871 18.3613 21.6049 17.2695 21.6058L17.2685 21.6055ZM17.2685 15.2211C16.7709 15.2211 16.2844 15.3631 15.8706 15.6291C15.4568 15.8952 15.1343 16.2733 14.9438 16.7157C14.7534 17.1582 14.7035 17.645 14.8006 18.1147C14.8977 18.5843 15.1374 19.0158 15.4893 19.3544C15.8412 19.693 16.2895 19.9236 16.7776 20.017C17.2657 20.1104 17.7717 20.0625 18.2315 19.8792C18.6912 19.696 19.0842 19.3856 19.3607 18.9875C19.6372 18.5893 19.7848 18.1212 19.7848 17.6423C19.7837 17.0008 19.5184 16.3858 19.0469 15.9322C18.5754 15.4785 17.9363 15.2233 17.2695 15.2224L17.2685 15.2211ZM21.3943 14.659C21.1991 14.659 21.0083 14.6032 20.846 14.4988C20.6838 14.3944 20.5574 14.2461 20.4827 14.0725C20.4081 13.899 20.3886 13.7081 20.4268 13.5239C20.4649 13.3397 20.5589 13.1705 20.697 13.0378C20.8351 12.905 21.0109 12.8146 21.2024 12.778C21.3938 12.7415 21.5923 12.7603 21.7726 12.8323C21.9529 12.9042 22.1069 13.026 22.2153 13.1821C22.3237 13.3383 22.3815 13.522 22.3815 13.7098C22.3815 13.9616 22.2776 14.2031 22.0927 14.3814C21.9078 14.5596 21.657 14.6599 21.3953 14.6603L21.3943 14.659Z" fill="white"/>
</svg>
