<svg width="35" height="35" viewBox="0 0 35 35" fill="none" xmlns="http://www.w3.org/2000/svg">
<rect x="0.867188" y="0.0703125" width="33.8889" height="34.4184" rx="16.9444" fill="#04A756"/>
<path d="M24.609 13.0918C24.2058 12.3635 23.7684 12.2295 22.8776 12.1786C21.9877 12.1173 19.7501 12.0918 17.8116 12.0918C15.8694 12.0918 13.6308 12.1173 12.7419 12.1776C11.853 12.2295 11.4146 12.3625 11.0077 13.0918C10.5925 13.8191 10.3789 15.0719 10.3789 17.2775C10.3789 17.2794 10.3789 17.2803 10.3789 17.2803C10.3789 17.2822 10.3789 17.2832 10.3789 17.2832V17.285C10.3789 19.4812 10.5925 20.7434 11.0077 21.4632C11.4146 22.1915 11.8521 22.3236 12.741 22.3849C13.6308 22.4377 15.8694 22.4689 17.8116 22.4689C19.7501 22.4689 21.9877 22.4377 22.8785 22.3858C23.7693 22.3245 24.2068 22.1924 24.6099 21.4642C25.0288 20.7444 25.2406 19.4821 25.2406 17.286C25.2406 17.286 25.2406 17.2832 25.2406 17.2813C25.2406 17.2813 25.2406 17.2794 25.2406 17.2784C25.2406 15.0719 25.0288 13.8191 24.609 13.0918ZM15.952 20.1104V14.4502L20.5963 17.2803L15.952 20.1104Z" fill="white"/>
</svg>
