<svg width="71" height="54" viewBox="0 0 71 54" fill="none" xmlns="http://www.w3.org/2000/svg">
<circle cx="24.4731" cy="28.9058" r="24.3247" fill="#04A756" fill-opacity="0.08"/>
<g clip-path="url(#clip0_493_1930)">
<path d="M21.9549 32.1797C21.0583 32.1797 20.1618 32.1797 19.2652 32.1797C16.7549 32.1797 15.679 30.7452 16.2169 28.4142C16.9342 24.828 17.6514 21.2418 18.548 17.6556C18.9066 16.2211 18.548 14.9659 18.1893 13.7107C17.6514 10.4832 16.7549 7.25558 16.0376 4.02799C15.679 2.05558 16.9342 0.621094 18.9066 0.621094C25.3618 0.621094 31.6376 0.621094 38.0928 0.621094C39.1687 0.621094 39.5273 0.979714 39.5273 1.69696C39.5273 2.59351 38.81 2.77282 38.0928 2.77282C31.9962 2.77282 25.7204 2.77282 19.6238 2.77282C18.1893 2.77282 18.01 2.95213 18.3687 4.38661C19.2652 8.15213 20.1618 11.9176 20.879 15.6832C21.0583 16.759 20.6997 17.8349 20.5204 18.9107C19.8031 22.3176 19.0859 25.7245 18.3687 29.1314C18.1893 29.8487 18.3687 30.2073 19.0859 30.2073C19.9825 30.2073 20.879 30.2073 21.9549 30.2073C21.9549 29.6694 21.9549 29.3107 21.9549 28.7728C21.9549 27.697 22.6721 27.159 23.5687 27.159C25.7204 27.159 27.8721 27.159 30.0238 27.159C30.9204 27.159 31.6376 27.8763 31.8169 28.7728C31.8169 29.1314 31.8169 29.6694 31.8169 30.2073C33.61 30.2073 35.2238 30.2073 37.0169 30.2073C37.0169 29.8487 37.0169 29.4901 37.0169 28.9521C37.0169 27.8763 37.7342 27.159 38.81 27.159C41.8583 27.159 44.9066 27.159 48.1342 27.159C49.21 27.159 49.9273 28.0556 49.9273 28.9521C49.9273 29.3107 49.9273 29.6694 49.9273 30.2073C51.5411 30.2073 53.3342 30.2073 54.948 30.2073C54.948 29.8487 54.948 29.4901 54.948 29.1314C54.948 27.8763 55.6652 27.159 56.9204 27.159C58.8928 27.159 60.6859 27.159 62.6583 27.159C64.0928 27.159 64.81 27.697 64.81 29.3107C64.81 29.6694 64.81 29.8487 64.81 30.2073C65.8859 30.2073 66.9618 30.2073 67.8583 30.2073C68.5756 30.2073 68.5756 29.8487 68.3962 29.1314C67.4997 25.5452 66.9618 21.7797 66.0652 18.1935C65.7066 16.759 65.8859 15.3245 66.2445 14.0694C66.9618 10.6625 67.679 7.43489 68.3962 4.02799C68.5756 3.13144 68.3962 2.95213 67.4997 2.95213C63.7342 2.95213 60.148 2.95213 56.3825 2.95213C53.6928 2.95213 51.1825 2.95213 48.4928 2.95213C47.7756 2.95213 47.0583 2.77282 47.0583 1.87627C47.0583 1.15902 47.4169 0.800404 48.4928 0.800404C54.948 0.800404 61.2238 0.800404 67.679 0.800404C69.6514 0.800404 70.9066 2.23489 70.3687 4.2073C69.6514 7.79351 68.9342 11.3797 68.0376 15.1452C67.679 16.5797 68.0376 17.8349 68.3962 19.0901C69.1135 22.3176 69.8307 25.5452 70.548 28.7728C70.9066 30.3866 70.01 32.0004 68.2169 32.1797C67.1411 32.359 65.8859 32.1797 64.81 32.1797C64.81 33.7935 64.81 35.228 64.81 36.6625C64.81 36.8418 65.1687 37.0211 65.348 37.2004C66.4238 37.9176 66.6031 38.9935 65.8859 39.8901C64.4514 41.6832 63.0169 43.4763 61.5825 45.2694C60.6859 46.3452 59.4307 46.3452 58.5342 45.2694C56.9204 43.4763 55.4859 41.8625 54.0514 40.0694C52.9756 38.8142 53.1549 38.097 54.41 37.0211C54.5893 36.8418 54.7687 36.6625 54.7687 36.4832C54.7687 35.0487 54.7687 33.6142 54.7687 32.1797C52.9756 32.1797 51.3618 32.1797 49.748 32.1797C49.748 35.0487 49.748 37.7383 49.748 40.6073C51.8997 41.3245 52.2583 42.759 50.8238 44.3728C48.8514 46.7039 47.0583 49.0349 45.2652 51.1866C43.8307 52.8004 42.5756 52.8004 41.3204 51.1866C39.5273 48.8556 37.5549 46.5245 35.7618 44.3728C34.3273 42.5797 34.6859 41.1452 36.8376 40.6073C36.8376 37.9176 36.8376 35.0487 36.8376 32.1797C35.2238 32.1797 33.4307 32.1797 31.8169 32.1797C31.8169 33.6142 31.8169 35.0487 31.8169 36.4832C31.8169 36.6625 32.1756 36.8418 32.3549 37.0211C33.2514 37.7383 33.61 38.6349 32.8928 39.7107C31.4583 41.5039 29.8445 43.4763 28.41 45.2694C27.6928 46.1659 26.4376 46.1659 25.7204 45.2694C24.1066 43.4763 22.6721 41.5039 21.2376 39.7107C20.5204 38.8142 20.879 37.7383 21.7756 37.0211C21.9549 36.8418 22.3135 36.6625 22.3135 36.4832C21.9549 35.228 21.9549 33.7935 21.9549 32.1797ZM37.1962 42.9383C39.348 45.4487 41.3204 47.7797 43.2928 50.2901C45.2652 47.7797 47.2376 45.4487 49.3894 42.9383C47.7756 42.5797 47.7756 42.5797 47.7756 40.9659C47.7756 37.3797 47.7756 33.7935 47.7756 30.028C47.7756 29.6694 47.7756 29.3107 47.7756 28.9521C44.9066 28.9521 42.0376 28.9521 39.1687 28.9521C39.1687 29.3107 39.1687 29.6694 39.1687 30.028C39.1687 33.6142 39.1687 37.3797 39.1687 40.9659C38.9893 42.5797 38.81 42.759 37.1962 42.9383ZM26.7962 43.6556C28.0514 42.2211 29.3066 40.6073 30.2031 39.5314C29.8445 38.8142 29.6652 38.2763 29.6652 37.7383C29.6652 36.4832 29.6652 35.4073 29.6652 34.1521C29.6652 32.5383 29.6652 30.7452 29.6652 29.1314C27.6928 29.1314 25.8997 29.1314 24.1066 29.1314C24.1066 32.0004 24.1066 34.6901 24.1066 37.559C24.1066 38.097 23.748 38.8142 23.5687 39.7107C24.4652 40.7866 25.5411 42.2211 26.7962 43.6556ZM63.1962 39.5314C63.0169 38.6349 62.6583 37.9176 62.6583 37.2004C62.6583 34.8694 62.6583 32.359 62.6583 30.028C62.6583 29.6694 62.6583 29.3107 62.6583 29.1314C60.6859 29.1314 58.8928 29.1314 57.0997 29.1314C57.0997 32.0004 57.0997 34.8694 57.0997 37.559C57.0997 38.097 56.7411 38.6349 56.5618 39.5314C57.6376 40.7866 58.7135 42.2211 59.9687 43.6556C61.0445 42.2211 62.1204 40.7866 63.1962 39.5314Z" fill="#555555"/>
<path d="M42.2164 7.07593C42.2164 6.17938 42.0371 5.10352 43.2923 5.10352C44.3681 5.10352 44.3681 6.17938 44.3681 6.71731C45.444 7.43455 46.5199 7.79317 47.4164 8.3311C47.775 8.51041 47.9543 9.04834 47.9543 9.40696C47.9543 9.76558 47.4164 10.1242 47.0578 10.3035C46.8785 10.4828 46.5199 10.1242 46.1612 10.1242C45.0854 9.76558 44.1888 9.40696 43.113 9.40696C42.0371 9.22765 41.3199 9.9449 41.1405 11.0208C40.9612 12.0966 41.4992 12.6346 42.2164 12.9932C43.113 13.1725 43.8302 13.3518 44.7268 13.7104C46.8785 14.607 47.9543 15.8621 47.9543 17.8346C47.9543 19.9863 46.6992 21.7794 44.5474 22.4966C44.3681 22.4966 44.3681 22.4966 44.1888 22.6759C44.0095 23.5725 44.5474 24.6483 43.113 24.6483C41.8578 24.6483 42.0371 23.5725 42.0371 22.8552C41.1405 22.4966 40.244 22.138 39.3474 21.7794C38.4509 21.2414 38.2716 20.7035 38.6302 20.1656C39.1681 19.4483 39.7061 19.6277 40.4233 19.9863C41.3199 20.5242 42.3957 20.7035 43.6509 20.5242C44.9061 20.3449 45.8026 19.269 45.9819 18.0139C45.9819 16.938 45.444 16.2208 44.1888 15.6828C43.113 15.3242 42.0371 14.9656 41.1405 14.4277C39.7061 13.7104 38.8095 12.4552 38.9888 10.6621C39.1681 8.86903 40.0647 7.79317 41.6785 7.07593C41.8578 7.25524 41.8578 7.25524 42.2164 7.07593Z" fill="#555555"/>
<path d="M35.5838 11.2004C35.5838 12.2763 34.8665 12.6349 33.97 12.2763C33.432 12.0969 32.8941 11.9176 32.1769 11.7383C31.8182 11.7383 31.4596 12.0969 31.101 12.2763C31.4596 12.6349 31.6389 12.9935 31.8182 13.1728C32.3562 13.5314 32.8941 13.7107 33.432 13.8901C34.6872 14.428 35.4044 15.1452 35.5838 16.5797C35.7631 18.0142 35.0458 18.9107 33.97 19.8073C33.6113 19.9866 33.432 20.5245 33.0734 20.8832C32.7148 21.2418 32.3562 21.6004 31.9975 21.6004C31.6389 21.6004 31.2803 21.2418 30.9217 20.8832C30.5631 20.7038 30.3838 20.3452 30.2044 20.1659C29.8458 19.9866 29.3079 19.8073 29.1286 19.628C28.9493 19.2694 28.77 18.5521 28.9493 18.1935C29.3079 17.4763 29.8458 17.2969 30.3838 17.6556C30.9217 17.8349 31.4596 18.0142 32.1769 18.0142C32.8941 18.0142 33.432 17.6556 33.432 16.9383C33.432 16.5797 32.8941 16.0418 32.5355 15.8625C31.8182 15.5038 31.101 15.3245 30.3838 14.9659C28.5907 13.8901 28.5907 11.3797 30.3838 10.1245C30.7424 9.94523 30.9217 9.40729 31.101 9.22798C31.4596 8.86936 31.8182 8.51074 32.1769 8.51074C32.5355 8.51074 33.0734 8.86936 33.0734 9.04867C33.2527 9.5866 33.6113 9.76591 34.1493 9.94522C34.6872 10.3038 35.4044 10.4832 35.5838 11.2004Z" fill="#555555"/>
<path d="M57.8156 17.2969C57.6363 17.6556 57.2776 18.5521 56.7397 19.2694C56.2018 19.8073 55.4845 20.1659 55.1259 21.0625C54.9466 21.7797 53.5121 21.6004 53.3328 20.8832C53.1535 20.3452 52.7949 20.1659 52.4363 19.9866C52.0776 19.8073 51.719 19.628 51.3604 19.4487C50.8225 19.0901 50.8225 18.5521 51.0018 18.0142C51.3604 17.4763 51.719 17.2969 52.4363 17.6556C52.9742 17.8349 53.6914 18.0142 54.4087 18.0142C55.1259 18.0142 55.4845 17.6556 55.4845 16.9383C55.4845 16.5797 55.1259 16.0418 54.7673 15.8625C54.05 15.5038 53.3328 15.3245 52.7949 14.9659C50.8225 13.8901 50.8225 11.3797 52.7949 10.1245C53.1535 9.94523 53.1535 9.5866 53.5121 9.22798C53.8707 8.86936 54.2294 8.51074 54.4087 8.51074C54.7673 8.51074 55.3052 8.86936 55.3052 9.04867C55.4845 9.5866 55.8432 9.76591 56.3811 9.94522C56.7397 10.1245 56.919 10.1245 57.2776 10.3038C57.8156 10.6625 57.9949 11.2004 57.8156 11.7383C57.4569 12.4556 56.919 12.4556 56.3811 12.2763C55.8432 12.0969 55.1259 11.9176 54.4087 11.7383C54.2294 11.7383 53.6914 12.0969 53.6914 12.2763C53.6914 12.4556 53.8707 12.9935 54.2294 12.9935C54.7673 13.3521 55.4845 13.5314 56.2018 13.8901C57.0983 14.6073 57.6363 15.5038 57.8156 17.2969Z" fill="#555555"/>
<path d="M43.1153 2.95214C42.7567 2.59352 42.2188 2.2349 42.2188 1.69697C42.2188 1.33835 42.7567 0.80042 43.1153 0.62111C43.8325 0.441799 44.1912 0.97973 44.1912 1.51766C44.1912 1.87628 43.6532 2.41421 43.4739 2.77283C43.4739 2.95214 43.2946 2.95214 43.1153 2.95214Z" fill="#555555"/>
<path d="M37.293 42.9387C38.9068 42.7594 39.0861 42.5801 39.0861 41.1456C39.0861 37.5594 39.0861 33.7939 39.0861 30.2077C39.0861 29.8491 39.0861 29.4905 39.0861 29.1318C41.955 29.1318 44.824 29.1318 47.693 29.1318C47.693 29.4905 47.693 29.8491 47.693 30.2077C47.693 33.7939 47.693 37.3801 47.693 41.1456C47.693 42.7594 47.693 42.9387 49.3068 43.118C47.3343 45.6284 45.3619 47.9594 43.2102 50.4698C41.4171 47.9594 39.4447 45.4491 37.293 42.9387Z" fill="#00D169"/>
<path d="M26.7975 43.6556C25.5423 42.2211 24.4665 40.7866 23.3906 39.5315C23.5699 38.6349 23.9286 38.097 23.9286 37.3797C23.9286 34.6901 23.9286 31.8211 23.9286 28.9521C25.7217 28.9521 27.5148 28.9521 29.4872 28.9521C29.4872 30.5659 29.4872 32.359 29.4872 33.9728C29.4872 35.228 29.4872 36.3039 29.4872 37.559C29.4872 38.097 29.8458 38.6349 30.0251 39.3521C29.3079 40.6073 28.0527 42.0418 26.7975 43.6556Z" fill="white"/>
<path d="M63.1966 39.5318C62.3001 40.6077 61.0449 42.0422 59.7897 43.656C58.5345 42.2215 57.4587 40.787 56.3828 39.5318C56.5621 38.8146 56.9207 38.0974 56.9207 37.5594C56.9207 34.6905 56.9207 32.0008 56.9207 29.1318C58.7138 29.1318 60.5069 29.1318 62.4794 29.1318C62.4794 29.4905 62.4794 29.8491 62.4794 30.0284C62.4794 32.3594 62.4794 34.8698 62.4794 37.2008C62.6587 37.918 62.838 38.6353 63.1966 39.5318Z" fill="white"/>
</g>
<defs>
<clipPath id="clip0_493_1930">
<rect width="54.5103" height="52" fill="white" transform="translate(16.0391 0.621094)"/>
</clipPath>
</defs>
</svg>
