<svg width="69" height="54" viewBox="0 0 69 54" fill="none" xmlns="http://www.w3.org/2000/svg">
<circle cx="24.9731" cy="28.9058" r="24.3247" fill="#04A756" fill-opacity="0.08"/>
<g clip-path="url(#clip0_493_1931)">
<path d="M45.9064 0.621094C46.4452 0.755809 46.9841 0.890524 47.5229 1.02524C50.8908 1.96824 52.9115 4.2584 53.8546 7.35685C54.124 8.29985 54.2587 9.24286 54.5281 10.0511C54.5281 10.1859 54.6628 10.4553 54.7976 10.59C55.6058 11.3983 56.4141 12.0719 57.2224 12.7454C57.7613 13.2843 57.7613 13.9579 57.3571 14.362C56.953 14.7662 56.2794 14.7662 55.7406 14.2273C55.2017 13.6885 54.5281 13.1496 53.9893 12.6107C53.7198 12.8802 53.5851 13.1496 53.4504 13.419C52.1033 15.305 50.352 16.9216 47.9271 17.4605C46.0411 17.8646 44.2898 17.7299 42.4038 17.4605C40.383 17.0563 38.3623 16.6522 36.2069 16.248C33.6473 15.8439 31.0877 15.8439 28.5281 16.9216C27.9893 17.3258 27.181 16.7869 27.3157 15.8439C27.4504 14.0926 28.124 12.3413 29.067 10.8594C31.7613 6.27912 35.5333 3.04596 40.6525 1.29467C41.5955 1.02524 42.5385 0.890524 43.4815 0.621094C44.2898 0.621094 45.0981 0.621094 45.9064 0.621094ZM29.7406 14.2273C30.6836 14.0926 31.4919 13.9579 32.3001 13.8232C34.8597 13.6885 37.2846 14.0926 39.7095 14.6315C41.7302 15.0356 43.7509 15.5745 45.7717 15.4397C48.7354 15.305 50.7561 13.6885 52.238 11.2636C50.352 10.1859 48.1965 9.647 46.0411 9.51229C43.0773 9.37757 40.1136 9.78172 37.2846 10.59C36.611 10.7247 36.0722 10.4553 35.9375 9.91643C35.8027 9.37757 36.0722 8.83871 36.7457 8.704C39.0359 8.03042 41.3261 7.62628 43.6162 7.49156C46.4452 7.35685 49.1395 7.76099 51.6991 8.83871C51.8338 8.83871 51.9685 8.97343 52.1033 8.97343C51.5644 6.9527 50.7561 5.06669 49.0048 3.85425C46.9841 2.37239 44.6939 2.23767 42.4038 2.77653C37.2846 3.98897 33.5126 6.81799 30.8183 11.2636C30.5489 12.3413 30.1447 13.2843 29.7406 14.2273Z" fill="#555555"/>
<path d="M16.5391 38.0722C16.6738 37.668 16.6738 37.2639 16.8085 36.9945C17.4821 34.4349 19.0986 32.5489 21.1194 30.9323C21.3888 30.6629 21.5235 30.3934 21.6582 29.9893C21.7929 28.9116 21.9277 27.9686 22.1971 27.0256C22.3318 26.352 22.8707 26.0826 23.5442 26.2173C24.0831 26.352 24.3525 26.8908 24.2178 27.5644C24.0831 28.3727 23.8137 29.181 23.679 29.8546C24.8914 30.124 25.9691 30.2587 27.1816 30.5282C29.8759 31.3364 31.7619 33.2225 32.8396 35.782C33.7826 37.9375 34.4562 40.0929 35.1297 42.2484C35.8033 44.1344 36.4769 46.0204 37.824 47.5022C38.3629 48.1758 39.1712 48.8494 39.8448 49.3883C40.2489 49.6577 40.5183 50.0618 40.3836 50.466C40.2489 51.0048 39.9795 51.2743 39.4406 51.409C36.881 52.352 34.1867 52.4867 31.3577 52.0826C27.8551 51.8131 24.622 50.466 21.6582 48.1758C19.3681 46.4245 17.4821 44.1344 16.8085 41.1706C16.6738 40.7665 16.6738 40.3623 16.5391 40.0929C16.5391 39.4193 16.5391 38.7458 16.5391 38.0722ZM21.3888 33.2225C20.9847 33.7613 20.4458 34.1655 20.1764 34.7043C19.0986 36.1862 18.5598 37.668 18.6945 39.5541C18.8292 41.3054 19.5028 42.7872 20.5805 44.1344C24.2178 48.58 29.0676 50.466 34.7256 50.466C35.5339 50.466 36.3422 50.3313 37.2852 50.1965C35.3992 48.3105 34.3214 46.1551 33.5132 43.8649C32.9743 42.3831 32.5702 40.7665 32.0313 39.2846C31.4924 37.6681 30.8189 36.0515 29.6064 34.7043C27.9898 32.8183 25.8344 32.1447 23.4095 32.1447C23.4095 32.4142 23.4095 32.5489 23.4095 32.6836C23.5442 34.9737 24.2178 37.1292 25.2955 39.1499C25.6997 39.9582 26.2385 40.6318 26.6427 41.3054C26.9121 41.7095 26.9121 42.1136 26.6427 42.5178C26.3733 42.9219 25.9691 43.0567 25.565 42.9219C25.2955 42.7872 25.0261 42.5178 24.7567 42.2484C23.1401 39.5541 21.7929 36.5903 21.3888 33.2225Z" fill="#555555"/>
<path d="M51.6505 47.6704L52.8345 50.2355L53.5174 50.494L55.0482 50.6568L56.351 51.0151L58.1098 51.4711H59.7709L61.5948 50.6568L63.4513 49.9077L65.4381 47.4324L66.7735 45.1525L67.262 42.0469V40.6904V37.4008L66.7735 34.4043L65.3078 30.9519L63.777 28.1834L61.4645 26.0664L61.0737 27.2063L60.3572 29.1605L59.5755 30.7564L57.719 33.3621L55.5042 36.0979L52.8345 39.9751L51.6505 42.0469L51.0586 43.9214V45.8945L51.6505 47.6704Z" fill="#00D169"/>
<path d="M51.429 49.7925C51.1596 48.9842 50.7554 48.3106 50.486 47.5024C49.543 44.9428 49.9471 42.3832 51.2943 39.9583C52.2373 38.207 53.4497 36.8599 54.7969 35.378C56.0093 34.0309 57.3565 32.549 58.4342 31.0671C59.5119 29.5853 60.3202 27.834 60.4549 25.8132C60.4549 25.4091 60.7243 25.0049 61.1285 24.8702C61.5326 24.7355 61.9368 24.8702 62.3409 25.1397C65.3046 27.834 67.1907 31.2018 67.9989 35.1086C68.8072 38.6112 68.8072 42.1138 67.5948 45.4816C66.7865 47.7718 65.5741 49.9272 63.4186 51.2744C60.859 52.891 58.1648 52.891 55.4704 52.2174C54.7969 52.0827 54.258 51.8132 53.5844 51.5438C53.315 51.5438 53.0456 51.4091 52.7761 51.5438C51.6984 51.8132 50.7554 52.2174 49.6777 52.6215C49.0041 52.7562 48.4653 52.4868 48.3306 51.948C48.1958 51.4091 48.4653 50.8702 49.1388 50.7355C49.8124 50.1967 50.6207 49.9272 51.429 49.7925ZM55.4704 49.9272C56.9523 50.3314 58.5689 50.6008 60.0508 50.1967C62.4756 49.6578 63.9575 48.0412 65.0352 45.8858C66.2477 43.1915 66.5171 40.2277 66.2477 37.264C65.8435 34.1656 64.9005 31.4713 63.0145 28.9117C62.7451 28.5075 62.4756 28.1034 62.0715 27.834C61.6673 28.6423 61.3979 29.5853 60.9938 30.2588C60.0508 32.1448 58.8383 33.6267 57.4912 35.1086C56.144 36.7252 54.6622 38.3417 53.4497 40.093C52.2373 41.8443 51.6984 43.7303 52.1026 45.8858C52.372 46.9635 52.6414 47.9065 53.1803 48.7148C53.315 48.5801 53.4497 48.5801 53.4497 48.5801C55.7399 47.0982 57.4912 45.0775 58.7036 42.6526C59.7813 40.6319 60.5896 38.3417 61.2632 36.1863C61.3979 35.5127 61.9368 35.2433 62.6103 35.378C63.1492 35.5127 63.4186 36.0516 63.2839 36.7252C63.0145 37.5334 62.7451 38.3417 62.4756 39.2847C61.3979 42.3832 60.0508 45.2122 57.8953 47.6371C57.2217 48.4454 56.2787 49.1189 55.4704 49.9272Z" fill="#555555"/>
<path d="M46.7148 26.6208C46.7148 25.8125 46.7148 24.8695 46.8496 24.0612C46.9843 22.5794 48.3314 21.5017 49.948 21.6364C51.4299 21.6364 52.777 22.7141 52.9117 24.196C53.0465 25.8125 53.0465 27.5638 52.9117 29.1804C52.777 30.6623 51.5646 31.74 49.948 31.74C48.3314 31.74 47.119 30.797 46.8496 29.3151C46.7148 28.2374 46.7148 27.4291 46.7148 26.6208ZM50.7563 26.4861C50.7563 25.8125 50.7563 25.139 50.7563 24.4654C50.7563 23.7918 50.3522 23.3877 49.8133 23.3877C49.2744 23.3877 48.8703 23.7918 48.8703 24.4654C48.8703 25.8125 48.8703 27.1597 48.8703 28.3721C48.8703 29.0457 49.2744 29.4498 49.8133 29.4498C50.3522 29.4498 50.7563 29.0457 50.7563 28.3721C50.7563 27.8333 50.7563 27.1597 50.7563 26.4861Z" fill="#555555"/>
<path d="M34.1867 23.5227C34.1867 24.1963 34.1867 24.8698 34.1867 25.5434C34.5908 25.5434 34.8603 25.5434 35.2644 25.5434C35.8033 25.5434 36.2074 25.9476 36.2074 26.4864C36.2074 27.0253 35.8033 27.4294 35.1297 27.5641C34.8603 27.5641 34.4561 27.5641 34.052 27.5641C34.052 28.2377 34.052 28.9113 34.052 29.5849C34.8603 29.5849 35.5338 29.5849 36.3421 29.5849C37.0157 29.5849 37.5546 29.989 37.5546 30.6626C37.5546 31.2014 37.1504 31.6056 36.3421 31.6056C35.2644 31.6056 34.1867 31.6056 33.109 31.6056C32.4354 31.6056 32.0312 31.2014 32.0312 30.5279C32.0312 27.8336 32.0312 25.1393 32.0312 22.5797C32.0312 21.9061 32.4354 21.502 33.109 21.502C34.1867 21.502 35.3991 21.502 36.4768 21.502C37.1504 21.502 37.5546 21.9061 37.5546 22.445C37.5546 22.9838 37.1504 23.388 36.4768 23.5227C35.8033 23.5227 34.995 23.5227 34.1867 23.5227Z" fill="#555555"/>
<path d="M41.1902 26.6207C41.1902 27.2943 41.1902 27.9679 41.1902 28.5067C41.1902 29.1803 41.5943 29.5844 42.1332 29.5844C42.672 29.5844 43.0762 29.1803 43.2109 28.6414C43.3456 27.8331 43.7498 27.5637 44.4233 27.5637C44.9622 27.6984 45.3663 28.2373 45.2316 28.9109C44.9622 30.5274 43.8845 31.6052 42.2679 31.6052C40.6513 31.6052 39.4389 30.5274 39.3042 28.9109C39.1694 27.2943 39.1694 25.543 39.3042 23.9264C39.4389 22.3098 40.9207 21.2321 42.5373 21.3668C44.0192 21.5015 45.2316 22.8487 45.2316 24.3305C45.2316 24.8694 44.8275 25.2735 44.2886 25.4083C43.7498 25.4083 43.3456 25.1388 43.2109 24.6C43.0762 24.3305 43.0762 23.9264 42.9415 23.657C42.672 23.3875 42.4026 23.2528 41.9985 23.3875C41.5943 23.5223 41.3249 23.7917 41.3249 24.1958C41.1902 25.1388 41.1902 25.8124 41.1902 26.6207Z" fill="#555555"/>
<path d="M29.8742 45.3468C29.8742 45.8856 29.47 46.4245 28.7965 46.4245C28.2576 46.4245 27.7188 45.8856 27.7188 45.3468C27.7188 44.8079 28.2576 44.4037 28.6618 44.4037C29.47 44.269 29.8742 44.8079 29.8742 45.3468Z" fill="#555555"/>
</g>
<defs>
<clipPath id="clip0_493_1931">
<rect width="52" height="52" fill="white" transform="translate(16.5391 0.621094)"/>
</clipPath>
</defs>
</svg>
