<svg width="68" height="54" viewBox="0 0 68 54" fill="none" xmlns="http://www.w3.org/2000/svg">
<circle cx="24.4731" cy="28.9058" r="24.3247" fill="#04A756" fill-opacity="0.08"/>
<g clip-path="url(#clip0_493_1929)">
<path d="M18.8179 51.5462L17.4155 50.5098L16.3789 48.3756V45.9977V41.4856L16.9887 39.2296L18.0862 38.193L21.7446 37.8271H26.2567L28.8176 38.193L29.9151 39.2296L30.6468 44.0465V48.8634L29.9151 50.5098L28.3298 51.5462H18.8179Z" fill="#00D169"/>
<path d="M47.1278 50.0293C42.106 50.0293 37.0842 50.0293 32.0624 50.0293C31.5764 50.0293 31.0905 50.1913 30.9285 50.6772C30.1185 51.9732 28.8226 52.6212 27.3646 52.6212C24.9347 52.6212 22.3428 52.6212 19.9129 52.6212C17.159 52.6212 15.5391 50.8392 15.5391 48.2473C15.5391 45.8174 15.5391 43.3875 15.5391 40.9576C15.5391 38.5277 17.645 36.5838 19.7509 36.7458C22.3428 36.9078 24.7727 36.7458 27.3646 36.7458C28.8226 36.7458 30.1185 37.3937 30.7665 38.6897C31.0905 39.1757 31.4145 39.3377 31.9004 39.3377C41.7821 39.3377 51.8257 39.3377 61.7073 39.3377C62.5173 39.3377 63.0032 39.4997 63.6512 40.1476C64.7852 41.2816 65.9191 42.5775 67.0531 43.7115C67.8631 44.5215 67.8631 44.8455 67.0531 45.6554C65.9191 46.9514 64.7852 48.2473 63.4892 49.3813C63.1652 49.7053 62.5173 50.0293 62.0313 50.0293C57.1715 50.0293 52.1497 50.0293 47.1278 50.0293ZM31.5764 41.4436C31.5764 43.7115 31.5764 45.8174 31.5764 47.9233C31.7384 47.9233 31.7384 47.9233 31.9004 47.9233C41.7821 47.9233 51.8257 47.9233 61.7073 47.9233C62.0313 47.9233 62.3553 47.9233 62.3553 47.7613C63.3272 46.7894 64.2992 45.8174 65.2712 44.6835C64.4612 43.7115 63.6512 42.9015 62.8412 42.0916C62.3553 41.6056 61.8693 41.4436 61.2213 41.4436C51.6637 41.4436 42.106 41.4436 32.5484 41.4436C32.2244 41.4436 31.9004 41.4436 31.5764 41.4436ZM23.4768 50.5152C24.6107 50.5152 25.9067 50.5152 27.0406 50.5152H27.2026C28.6606 50.5152 29.3085 49.8673 29.3085 48.4093C29.3085 45.8174 29.3085 43.3875 29.3085 40.7956C29.3085 39.4997 28.4986 38.6897 27.0406 38.6897C24.6107 38.6897 22.1808 38.6897 19.5889 38.6897C18.293 38.6897 17.321 39.4997 17.321 40.7956C17.321 43.2255 17.321 45.8174 17.321 48.2473C17.321 49.5433 18.131 50.3532 19.4269 50.3532C21.0469 50.5152 22.1808 50.5152 23.4768 50.5152Z" fill="#555555"/>
<path d="M65.2712 8.55879C64.1372 7.58683 63.3272 6.45287 62.3553 5.48091C62.1933 5.31891 61.8693 5.31891 61.7073 5.31891C51.8257 5.31891 41.7821 5.31891 31.9004 5.31891C31.7384 5.31891 31.7384 5.31891 31.5764 5.31891C31.5764 7.42483 31.5764 9.53075 31.5764 11.7987C32.0624 11.7987 32.3864 11.7987 32.7104 11.7987C35.3023 11.7987 38.0562 11.7987 40.6481 11.7987C40.8101 11.7987 41.1341 11.7987 41.2961 11.7987C41.944 11.7987 42.592 11.9607 42.592 12.7706C42.592 13.5806 42.106 13.9046 41.2961 13.9046C40.1621 13.9046 38.8662 13.9046 37.7322 13.9046C35.7883 13.9046 33.8444 13.9046 31.9004 13.9046C31.4145 13.9046 31.2525 14.0666 30.9285 14.3906C30.1185 15.8485 28.9845 16.4965 27.3646 16.4965C24.7727 16.4965 22.1808 16.4965 19.5889 16.4965C17.321 16.4965 15.5391 14.8765 15.5391 12.6086C15.5391 9.85474 15.5391 7.26284 15.5391 4.50894C15.5391 2.40303 17.321 0.783088 19.5889 0.621094C22.1808 0.621094 24.7727 0.621094 27.5266 0.621094C28.8226 0.621094 30.1185 1.26907 30.9285 2.56502C31.2525 3.051 31.5764 3.21299 32.0624 3.21299C41.944 3.21299 51.8257 3.21299 61.8693 3.21299C62.8412 3.21299 63.3272 3.53698 63.9752 4.18496C64.9472 5.31891 66.0811 6.45287 67.2151 7.58683C67.8631 8.3968 67.8631 8.72078 67.2151 9.53075C66.0811 10.8267 64.7852 12.1227 63.6512 13.2566C63.3272 13.5806 62.6792 13.9046 62.1933 13.9046C58.4674 13.9046 54.7416 13.9046 51.0157 13.9046C50.6917 13.9046 50.3677 13.9046 50.2057 13.7426C49.8817 13.5806 49.5578 13.0946 49.5578 12.7706C49.5578 12.4466 50.0437 12.1227 50.3677 11.9607C50.5297 11.7987 51.0157 11.9607 51.3397 11.9607C54.5796 11.9607 57.9814 11.9607 61.2213 11.9607C61.7073 11.9607 62.1933 11.7987 62.5173 11.4747C63.4892 10.5027 64.2992 9.53075 65.2712 8.55879ZM23.6388 2.72701C22.3428 2.72701 21.0469 2.72701 19.7509 2.72701C18.455 2.72701 17.645 3.53698 17.645 4.83293C17.645 7.42483 17.645 9.85474 17.645 12.4466C17.645 13.7426 18.455 14.5526 19.9129 14.5526C22.3428 14.5526 24.9347 14.5526 27.3646 14.5526C28.6606 14.5526 29.4705 13.7426 29.4705 12.4466C29.4705 9.85474 29.4705 7.26284 29.4705 4.67094C29.4705 3.37499 28.6606 2.72701 27.5266 2.72701C26.0687 2.72701 24.7727 2.72701 23.6388 2.72701Z" fill="#555555"/>
<path d="M52.4753 31.886C49.2354 31.886 45.9955 31.886 42.7557 31.886C42.1077 31.886 41.7837 32.048 41.4597 32.534C40.6498 33.83 39.5158 34.4779 37.8959 34.4779C35.304 34.4779 32.8741 34.4779 30.2822 34.4779C27.8522 34.4779 26.0703 32.696 26.0703 30.2661C26.0703 27.8362 26.0703 25.4063 26.0703 22.8144C26.0703 20.2225 27.8522 18.6025 30.2822 18.6025C32.8741 18.6025 35.304 18.6025 37.8959 18.6025C39.3538 18.6025 40.4878 19.2505 41.2977 20.5465C41.6217 21.1944 42.1077 21.1944 42.5937 21.1944C48.9114 21.1944 55.2292 21.1944 61.547 21.1944C62.3569 21.1944 63.0049 21.3564 63.6529 22.0044C64.7868 23.1384 65.9208 24.2723 66.8927 25.4063C67.7027 26.2162 67.7027 26.5402 66.8927 27.3502C65.7588 28.6462 64.6248 29.9421 63.4909 31.2381C63.0049 31.724 62.6809 31.886 62.0329 31.886C58.9551 31.886 55.7152 31.886 52.4753 31.886ZM65.2728 26.3782C64.3008 25.5683 63.4909 24.7583 62.6809 23.9483C62.1949 23.4624 61.8709 23.3004 61.223 23.3004C55.2292 23.3004 49.0734 23.3004 43.0797 23.3004C42.7557 23.3004 42.4317 23.3004 42.1077 23.3004C42.1077 25.5683 42.1077 27.6742 42.1077 29.7801C42.2697 29.7801 42.2697 29.7801 42.2697 29.7801C48.7494 29.7801 55.0672 29.7801 61.547 29.7801C61.7089 29.7801 62.0329 29.7801 62.1949 29.6181C63.1669 28.6462 64.1389 27.6742 65.2728 26.3782ZM34.17 20.7085C32.8741 20.7085 31.7401 20.7085 30.4441 20.7085C28.9862 20.7085 28.1762 21.5184 28.1762 22.9764C28.1762 25.4063 28.1762 27.8362 28.1762 30.4281C28.1762 31.724 28.9862 32.534 30.2822 32.696C32.8741 32.696 35.304 32.696 37.8959 32.696C39.1918 32.696 40.0018 31.724 40.0018 30.4281C40.0018 27.9982 40.0018 25.5683 40.0018 23.1384C40.0018 21.6804 39.1918 20.8705 37.7339 20.8705C36.5999 20.7085 35.466 20.7085 34.17 20.7085Z" fill="#555555"/>
<path d="M46.9675 7.58691C50.8554 7.58691 54.5813 7.58691 58.4691 7.58691C58.9551 7.58691 59.4411 7.9109 59.7651 8.23489C60.251 8.88286 59.6031 9.53084 58.7931 9.69283C57.8211 9.69283 56.8492 9.69283 55.8772 9.69283C49.2355 9.69283 42.7557 9.69283 36.114 9.69283C35.952 9.69283 35.628 9.69283 35.466 9.69283C34.818 9.69283 34.332 9.36885 34.332 8.55888C34.332 7.9109 34.818 7.58691 35.466 7.58691C37.4099 7.58691 39.1918 7.58691 41.1358 7.58691C43.0797 7.58691 45.0236 7.58691 46.9675 7.58691Z" fill="#555555"/>
<path d="M20.4004 28.3222C19.1044 28.3222 18.1325 28.3222 16.9985 28.3222C16.0266 28.3222 15.5406 27.9982 15.7026 27.1882C15.7026 26.3782 16.3505 26.2162 17.1605 26.2162C18.1325 26.2162 19.2664 26.2162 20.4004 26.2162C20.0764 25.8922 19.9144 25.7302 19.7524 25.5683C19.7524 25.0823 19.5904 24.4343 19.7524 24.2723C20.0764 23.9483 20.8864 23.9483 21.0484 24.1103C22.0203 24.9203 22.8303 25.7303 23.6403 26.7022C24.2882 27.1882 23.9643 27.6742 23.6403 28.1602C22.9923 28.9701 22.1823 29.6181 21.5343 30.2661C21.0484 30.7521 20.5624 30.9141 19.9144 30.4281C19.2664 29.9421 19.5904 29.2941 20.0764 28.8081C20.0764 28.8081 20.2384 28.6461 20.4004 28.3222Z" fill="#555555"/>
<path d="M47.1277 13.2563C46.9657 13.4183 46.4797 13.9043 46.1557 13.9043C45.5077 13.9043 45.0217 13.5803 45.1837 12.9323C45.1837 12.6084 45.6697 12.1224 46.1557 11.9604C46.6417 11.7984 46.9657 12.2844 47.1277 13.2563Z" fill="#555555"/>
<path d="M47.1277 45.6557C43.4018 45.6557 39.838 45.6557 36.1121 45.6557C35.7881 45.6557 35.4642 45.8177 35.3022 45.6557C34.9782 45.4937 34.4922 45.0077 34.4922 44.8457C34.4922 44.5217 34.9782 44.0357 35.3022 43.8738C35.4642 43.7118 35.7881 43.8738 35.9501 43.8738C43.4018 43.8738 51.0156 43.8738 58.4673 43.8738C58.6293 43.8738 58.9532 43.8738 59.1152 43.8738C59.4392 44.1977 59.9252 44.5217 60.0872 44.8457C60.2492 45.4937 59.7632 45.8177 59.1152 45.8177C58.4673 45.8177 57.6573 45.8177 57.0093 45.8177C53.6075 45.6557 50.3676 45.6557 47.1277 45.6557Z" fill="#555555"/>
<path d="M22.6682 45.3311C23.8021 44.1972 24.7741 43.0632 25.7461 42.0913C26.2321 41.6053 26.88 41.2813 27.366 41.9293C27.852 42.4153 27.69 43.0632 27.204 43.5492C26.0701 44.8452 24.7741 45.9791 23.6402 47.2751C22.9922 47.923 22.5062 47.923 21.8582 47.2751C21.2102 46.6271 20.4003 45.9791 19.7523 45.1691C19.2663 44.6832 19.1043 44.1972 19.5903 43.7112C20.0763 43.2252 20.7243 43.2252 21.2102 43.8732C21.6962 44.3592 22.1822 44.8452 22.6682 45.3311Z" fill="#555555"/>
<path d="M22.6671 9.36901C23.801 8.23505 24.773 7.26309 25.583 6.29113C25.745 6.12913 25.907 5.80515 26.069 5.80515C26.5549 5.80515 27.0409 5.64315 27.3649 5.96714C27.8509 6.29113 27.8509 6.9391 27.3649 7.26309C26.069 8.72103 24.773 10.017 23.3151 11.3129C23.1531 11.6369 22.3431 11.6369 22.0191 11.3129C21.2091 10.665 20.3992 9.85499 19.7512 9.04502C19.2652 8.55904 19.2652 8.07306 19.7512 7.74907C20.2372 7.26309 20.7232 7.26309 21.2091 7.74907C21.5331 8.07306 22.0191 8.72104 22.6671 9.36901Z" fill="#555555"/>
<path d="M52.4754 27.6744C50.5315 27.6744 48.7495 27.6744 46.8056 27.6744C45.8336 27.6744 45.3477 27.1884 45.3477 26.7024C45.5097 25.8925 45.9956 25.7305 46.8056 25.7305C50.6935 25.7305 54.5813 25.7305 58.4692 25.7305C59.1171 25.7305 59.7651 25.8925 59.7651 26.7024C59.7651 27.3504 59.2791 27.6744 58.4692 27.6744C56.5252 27.6744 54.5813 27.6744 52.4754 27.6744Z" fill="#555555"/>
<path d="M35.4641 26.54C36.1121 27.188 36.7601 27.674 37.2461 28.16C37.7321 28.6459 37.894 29.1319 37.4081 29.7799C36.9221 30.2659 36.4361 30.1039 35.9501 29.6179C35.4641 29.1319 34.9782 28.484 34.1682 27.674C33.6822 28.322 33.1962 28.9699 32.7102 29.4559C32.2243 29.9419 31.5763 30.2659 31.0903 29.6179C30.6043 29.1319 30.7663 28.484 31.2523 27.998C31.7383 27.512 32.3863 27.026 33.0342 26.378C32.3863 25.7301 31.7383 25.4061 31.2523 24.7581C30.7663 24.2721 30.6043 23.6241 31.0903 23.1382C31.5763 22.6522 32.2243 22.8142 32.7102 23.3002C33.1962 23.7861 33.6822 24.4341 34.3302 25.0821C34.9782 24.4341 35.4641 23.9481 35.9501 23.4621C36.4361 22.9762 37.0841 22.6522 37.5701 23.3002C38.218 23.9481 37.894 24.4341 37.4081 24.9201C36.7601 25.4061 36.1121 25.8921 35.4641 26.54Z" fill="#555555"/>
</g>
<defs>
<clipPath id="clip0_493_1929">
<rect width="52.162" height="52" fill="white" transform="translate(15.5391 0.621094)"/>
</clipPath>
</defs>
</svg>
