<svg width="66" height="53" viewBox="0 0 66 53" fill="none" xmlns="http://www.w3.org/2000/svg">
<circle cx="24.6255" cy="25.3413" r="24.3247" fill="#04A756" fill-opacity="0.08"/>
<g clip-path="url(#clip0_493_1928)">
<path d="M14.5391 18.0329V6.66135L15.4258 6.19192L17.1994 5.87891H19.6511L20.7987 6.92217L22.2592 9.73899L24.2414 14.225V18.0329H14.5391Z" fill="#00D169"/>
<path d="M20.3037 48.209C20.1417 48.8569 20.1417 49.5049 19.9798 49.9909C19.4938 51.6108 18.0358 52.5828 16.4159 52.4208C14.796 52.2588 13.5 50.9628 13.5 49.3429C13.5 47.075 13.5 44.8071 13.5 42.5392C13.5 41.8912 13.824 41.4052 14.634 41.4052C15.1199 41.4052 15.7679 41.4052 16.4159 41.4052C16.4159 33.9535 16.4159 26.8258 16.4159 19.3741C15.7679 19.3741 15.2819 19.3741 14.634 19.3741C13.824 19.3741 13.5 18.8881 13.5 18.2401C13.5 14.1903 13.5 10.1404 13.5 6.25256C13.5 5.44259 13.824 5.1186 14.634 5.1186C16.4159 5.1186 18.1978 5.1186 19.9798 5.1186C20.4657 5.1186 20.9517 5.44259 21.1137 5.76658C22.5717 8.52047 24.0296 11.1124 25.3255 13.7043C25.4875 14.0283 25.4875 14.5142 25.6495 14.8382C25.6495 15.6482 25.6495 16.6202 25.6495 17.4301C25.6495 19.0501 25.4875 19.3741 23.8676 19.3741C23.5436 19.3741 23.2196 19.3741 22.8956 19.3741C22.8956 26.6638 22.8956 33.9535 22.8956 41.4052C24.3536 41.4052 25.6495 41.4052 27.2695 41.4052C27.2695 41.0812 27.2695 40.7572 27.2695 40.4333C27.2695 34.7635 27.2695 29.2557 27.2695 23.5859C27.2695 22.2899 27.5935 21.966 28.8894 21.966C34.2352 21.966 39.581 21.966 44.9268 21.966C45.2508 21.966 45.5748 21.966 46.0607 21.966C45.7368 21.642 45.5748 21.318 45.4128 21.156C43.1449 18.8881 41.8489 16.1342 41.6869 13.0563C41.5249 6.90054 45.7368 1.71674 51.7305 0.744773C58.2103 -0.389184 63.7181 3.49867 65.338 9.81642C66.9579 16.4582 61.9361 23.4239 55.2944 24.2339C54.1604 24.3959 53.1885 24.2339 52.0545 24.2339C50.5966 24.0719 49.9486 24.5579 49.9486 26.1778C49.9486 30.8756 49.9486 35.5734 49.9486 40.2713C49.9486 40.5952 49.9486 40.9192 49.9486 41.4052C50.4346 41.4052 50.7586 41.4052 51.0826 41.4052C54.4844 41.4052 57.8863 41.4052 61.2882 41.4052C62.5841 41.4052 62.7461 41.5672 62.7461 42.8632C62.7461 44.9691 62.7461 47.075 62.7461 49.1809C62.7461 50.9628 61.4502 52.4208 59.6682 52.4208C57.8863 52.5828 56.4284 51.2868 56.2664 49.5049C56.2664 49.0189 56.1044 48.6949 56.1044 48.047C55.7804 48.047 55.4564 48.047 55.1324 48.047C51.2446 48.047 47.3567 48.047 43.6308 48.047C43.3069 48.047 42.9829 48.047 42.8209 48.047C42.4969 47.885 42.0109 47.561 42.0109 47.237C42.0109 46.913 42.1729 46.427 42.4969 46.265C42.6589 46.103 43.1449 46.103 43.4688 46.103C48.8146 46.103 54.3224 46.103 59.6682 46.103C59.9922 46.103 60.3162 46.103 60.6402 46.103C60.6402 45.1311 60.6402 44.3211 60.6402 43.5111C45.5748 43.5111 30.6713 43.5111 15.6059 43.5111C15.6059 44.3211 15.6059 45.1311 15.6059 46.103C15.9299 46.103 16.2539 46.103 16.5779 46.103C22.0857 46.103 27.5935 46.103 33.1012 46.103C33.2632 46.103 33.5872 46.103 33.7492 46.103C34.3972 46.103 34.8832 46.427 34.8832 47.075C34.8832 47.723 34.3972 48.047 33.7492 48.047C31.1573 48.047 28.5654 48.047 26.1355 48.047C24.0296 48.2089 22.2477 48.209 20.3037 48.209ZM42.6589 23.9099C42.6589 25.8538 42.6589 27.6357 42.6589 29.5797C42.6589 30.0656 42.4969 30.7136 42.1729 30.7136C41.8489 30.8756 41.2009 30.7136 40.8769 30.3896C40.391 30.0656 40.067 29.9037 39.581 30.3896C39.095 30.8756 38.447 31.0376 37.9611 30.5516C37.3131 29.9037 36.8271 30.0656 36.1791 30.5516C35.3692 31.1996 34.5592 30.7136 34.3972 29.5797C34.3972 28.2837 34.3972 26.9878 34.3972 25.6918C34.3972 25.0438 34.3972 24.3959 34.3972 23.7479C32.6153 23.7479 30.9953 23.7479 29.2134 23.7479C29.2134 29.5797 29.2134 35.2494 29.2134 41.0812C35.5312 41.0812 41.6869 41.0812 47.8427 41.0812C47.8427 36.0594 47.8427 31.0376 47.8427 26.0158C47.1947 26.3398 46.3847 26.8258 45.8988 25.8538C45.5748 25.2058 45.7368 24.3959 45.5748 23.7479C44.6028 23.9099 43.7928 23.9099 42.6589 23.9099ZM47.6807 23.7479C47.8427 23.7479 47.8427 23.7479 48.0047 23.7479C48.6526 23.2619 49.3006 22.7759 50.1106 22.4519C50.5966 22.2899 51.2446 22.128 51.7305 22.128C58.5343 23.4239 64.366 17.5921 63.5561 11.1124C62.7461 5.44259 57.4003 1.55474 51.7305 2.6887C44.4408 3.98465 41.0389 13.0563 45.8988 18.5641C47.1947 20.184 48.3287 21.48 47.6807 23.7479ZM15.6059 17.1061C18.3598 17.1061 20.9517 17.1061 23.7056 17.1061C23.5436 16.1342 23.7056 15.1622 23.3816 14.3523C22.2477 12.0843 20.9517 9.81642 19.8178 7.54851C19.6558 7.38652 19.4938 7.06253 19.3318 7.06253C18.0358 7.06253 16.9019 7.06253 15.6059 7.06253C15.6059 10.4644 15.6059 13.8663 15.6059 17.1061ZM18.5218 19.3741C18.5218 26.6638 18.5218 33.9535 18.5218 41.4052C19.1698 41.4052 19.8178 41.4052 20.4657 41.4052C20.4657 34.1155 20.4657 26.8258 20.4657 19.3741C19.8178 19.3741 19.3318 19.3741 18.5218 19.3741ZM38.447 28.6077C39.095 28.2837 39.743 27.9597 40.553 27.6357C40.553 26.5018 40.553 25.2058 40.553 23.9099C39.095 23.9099 37.7991 23.9099 36.5031 23.9099C36.5031 25.2058 36.5031 26.5018 36.5031 27.6357C37.3131 27.9597 37.9611 28.2837 38.447 28.6077ZM58.2103 48.209C58.0483 49.0189 57.8863 49.8289 58.6963 50.1529C59.0203 50.3149 59.6682 50.3149 60.1542 50.1529C60.8022 49.6669 60.8022 49.0189 60.6402 48.209C59.8302 48.209 59.0203 48.209 58.2103 48.209ZM15.6059 48.209C15.4439 49.0189 15.4439 49.8289 16.2539 50.1529C16.5779 50.3149 17.2259 50.3149 17.5498 50.1529C18.3598 49.8289 18.1978 49.0189 18.0358 48.209C17.8738 48.209 17.5498 48.209 17.3879 48.209C16.7399 48.209 16.2539 48.209 15.6059 48.209Z" fill="#555555"/>
<path d="M38.2846 48.2087C37.6366 48.2087 37.1507 47.7227 37.3126 47.2368C37.4746 46.9128 37.7986 46.4268 38.2846 46.2648C38.7706 46.1028 39.2566 46.5888 39.2566 47.2368C39.4186 47.7227 38.9326 48.2087 38.2846 48.2087Z" fill="#555555"/>
<path d="M58.0463 15.3239C57.2364 15.3239 56.5884 15.3239 56.1024 15.1619C54.4825 14.8379 53.6725 13.218 53.9965 11.598C54.3205 10.1401 55.7784 9.16813 57.2364 9.49212C57.7224 9.49212 58.0463 9.49212 58.5323 9.49212C59.3423 9.49212 59.6663 9.81611 59.6663 10.4641C59.6663 12.408 59.6663 14.1899 59.6663 16.1339C59.6663 17.5918 58.6943 18.5638 57.2364 18.8878C56.1024 19.2117 54.6445 18.5638 54.1585 17.4298C53.8345 16.7818 53.6725 16.1339 54.3205 15.8099C54.9685 15.3239 55.4544 15.8099 55.9404 16.2959C56.2644 16.6198 56.9124 16.9438 57.0744 16.7818C57.5604 16.4579 57.7224 15.8099 58.0463 15.3239ZM56.9124 13.542C57.3984 12.894 57.8843 12.57 57.7223 12.408C57.7223 12.084 57.2364 11.598 56.9124 11.598C56.7504 11.598 56.1024 12.084 56.1024 12.408C56.1024 12.57 56.4264 12.894 56.9124 13.542Z" fill="#555555"/>
<path d="M50.1098 9.49292C50.4338 9.16893 50.7578 9.00694 51.0818 8.84495C51.5678 8.52096 52.2157 8.35896 52.5397 8.84495C53.0257 9.33093 52.8637 9.9789 52.3777 10.3029C51.8918 10.6269 51.4058 11.1129 50.7578 11.5988C51.4058 12.0848 52.0538 12.5708 52.5397 13.2188C53.0257 13.7048 53.1877 14.3527 52.7017 14.8387C52.2157 15.3247 51.5678 15.1627 51.0818 14.6767C50.7578 14.3527 50.5958 14.0287 50.2718 13.7048L50.1098 13.8668C50.1098 14.0287 50.1098 14.3527 49.9478 14.5147C49.6238 14.8387 49.1379 15.1627 48.8139 15.1627C48.4899 15.1627 48.0039 14.5147 48.0039 14.1907C48.0039 11.9228 48.0039 9.65491 48.0039 7.387C48.0039 6.73903 48.3279 6.41504 48.9759 6.41504C49.6238 6.41504 49.9478 6.73903 49.9478 7.549C50.1098 8.03498 50.1098 8.68295 50.1098 9.49292Z" fill="#555555"/>
</g>
<defs>
<clipPath id="clip0_493_1928">
<rect width="52.162" height="52" fill="white" transform="translate(13.5 0.420898)"/>
</clipPath>
</defs>
</svg>
