<svg width="62" height="55" viewBox="0 0 62 55" fill="none" xmlns="http://www.w3.org/2000/svg">
<circle cx="25.1997" cy="30.0444" r="24.3247" fill="#04A756" fill-opacity="0.08"/>
<g clip-path="url(#clip0_493_1927)">
<path d="M60.9488 17.5824C60.9488 21.0148 61.1205 24.6187 60.9488 28.0511C60.434 35.259 57.3449 41.2656 52.1964 46.0709C48.5924 49.3316 44.302 51.5626 39.4967 52.4207C38.467 52.5923 37.2657 52.2491 36.236 51.9059C25.5957 48.9884 17.8729 39.721 16.6716 28.9092C16.5 26.8498 16.5 24.7903 16.5 22.9026C16.5 18.0973 16.5 13.4636 16.5 8.65833C16.5 7.62863 16.8432 7.11378 17.8729 6.77054C24.566 4.71113 31.4307 2.48011 38.1238 0.420705C38.6386 0.249088 39.1535 0.249088 39.6683 0.420705C46.3614 2.48011 53.2261 4.71113 59.9191 6.77054C60.7772 7.11378 61.1205 7.62863 61.1205 8.48671C61.1205 11.5758 61.1205 14.4933 60.9488 17.5824ZM18.731 8.65833C18.731 8.82995 18.731 9.17318 18.731 9.3448C18.731 15.1798 18.731 21.1864 18.731 27.0214C18.731 27.8795 18.731 28.9092 18.9026 29.7672C21.1337 40.4075 27.3119 47.2722 37.7805 50.1897C38.467 50.3613 39.1535 50.3613 39.6683 50.1897C43.6155 49.3316 47.2195 47.4438 50.3086 44.6979C55.4571 40.2359 58.3746 34.5725 58.8894 27.7078C59.2327 21.358 58.8894 15.1798 59.0611 8.82995C59.0611 8.65833 59.0611 8.65833 59.0611 8.48671C58.8894 8.48671 58.8894 8.48671 58.7178 8.31509C52.1964 6.59892 45.6749 4.53952 39.3251 2.65173C38.9818 2.48011 38.467 2.65173 38.1238 2.65173C36.4076 3.16658 34.863 3.68143 33.1469 4.19628C28.3416 5.74084 23.5363 7.28539 18.731 8.65833Z" fill="#555555"/>
<path d="M22.3359 19.9846C22.3359 17.582 22.3359 15.0077 22.3359 12.6051C22.3359 11.9186 22.5076 11.5754 23.194 11.2321C28.1709 9.68759 33.3194 8.14303 38.2963 6.42686C38.6396 6.25524 38.9828 6.42686 39.326 6.42686C44.3029 7.97141 49.2798 9.51597 54.2567 11.0605C55.1148 11.2321 55.2864 11.747 55.2864 12.6051C55.2864 17.2387 55.2864 21.8724 55.2864 26.5061C55.2864 29.7668 54.4283 32.6843 53.0554 35.6018C52.7122 36.2882 52.3689 36.6315 51.5109 36.2882C50.8244 36.1166 50.8244 35.4302 51.1676 34.5721C52.7122 31.6546 53.227 28.5655 53.227 25.3047C53.227 21.5292 53.227 17.582 53.227 13.8064C53.227 13.1199 53.0554 12.9483 52.5406 12.7767C48.2501 11.4038 43.9597 10.0308 39.4977 8.8295C38.9828 8.65788 38.468 8.65788 37.9531 8.8295C33.6627 10.0308 29.3722 11.4038 24.9102 12.7767C24.3953 12.9483 24.2237 13.1199 24.2237 13.6348C24.2237 17.7536 24.2237 22.044 24.2237 26.1628C24.3953 34.5721 29.8871 41.9516 37.9531 44.3543C38.468 44.5259 39.1544 44.5259 39.6693 44.3543C41.5571 43.4962 43.2732 42.6381 45.161 41.78C45.8475 41.4368 46.3623 41.0935 46.8772 41.78C47.2204 42.2949 47.0488 42.8097 46.3623 43.4962C44.3029 45.0407 42.0719 46.0704 39.4977 46.7569C38.9828 46.9285 38.468 46.7569 38.1247 46.7569C29.8871 44.5259 23.5373 37.318 22.6792 28.7371C22.1643 25.648 22.5076 22.7305 22.3359 19.9846Z" fill="#555555"/>
<path d="M47.4263 22.6392L36.9798 32.8748L30.4375 26.0686L33.9197 22.6392L36.6633 26.0686L44.0497 19.4736L47.4263 22.6392Z" fill="#00D169"/>
<path d="M36.9218 24.7908C38.9812 22.7314 41.0406 20.672 42.9284 18.7842C43.7865 17.9261 44.3013 17.9261 45.1594 18.7842C46.0175 19.6423 46.8756 20.5004 47.9053 21.5301C48.7634 22.3882 48.7634 22.903 47.9053 23.5895C44.6446 26.8502 41.2122 30.2825 37.9515 33.5433C37.265 34.2297 36.7502 34.2297 36.0637 33.5433C34.0043 31.4839 31.7733 29.2528 29.7139 27.1934C28.8558 26.3353 28.8558 25.9921 29.7139 25.134C30.7436 24.1043 31.6017 23.2462 32.6314 22.2165C33.4895 21.5301 33.8327 21.5301 34.6908 22.2165C35.3772 23.0746 36.0637 23.9327 36.9218 24.7908ZM31.6017 26.1637C33.4895 28.0515 35.2056 29.7677 36.9218 31.4839C39.8393 28.5664 42.9284 25.4773 45.8459 22.5598C45.331 22.0449 44.6446 21.3584 43.9581 20.672C43.7865 20.8436 43.6149 21.0152 43.4433 21.0152C41.5555 22.903 39.6677 24.7908 37.7799 26.507C36.9218 27.365 36.5786 27.365 35.7205 26.507C34.8624 25.6489 34.1759 24.9624 33.4895 24.1043C32.9746 24.9624 32.2881 25.4773 31.6017 26.1637Z" fill="#555555"/>
<path d="M49.2797 38.1768C49.9662 38.1768 50.3094 38.52 50.3094 39.2065C50.3094 39.7213 49.9662 40.2362 49.2797 40.2362C48.5932 40.2362 48.25 39.8929 48.25 39.2065C48.25 38.6916 48.5932 38.1768 49.2797 38.1768Z" fill="#555555"/>
</g>
<defs>
<clipPath id="clip0_493_1927">
<rect width="44.6205" height="52" fill="white" transform="translate(16.5 0.420898)"/>
</clipPath>
</defs>
</svg>
