<svg width="68" height="54" viewBox="0 0 68 54" fill="none" xmlns="http://www.w3.org/2000/svg">
<circle cx="24.4731" cy="28.7056" r="24.3247" fill="#04A756" fill-opacity="0.08"/>
<g clip-path="url(#clip0_208_10051)">
<path d="M16 24.6229C16.1383 23.9314 16.1383 23.2399 16.2766 22.5484C16.9681 18.1229 18.6277 14.1122 21.3936 10.5165C25.1277 5.67607 30.1064 2.49522 36.0532 1.11224C41.3085 -0.132438 46.5638 0.282455 51.6808 2.35692C52.3723 2.63352 52.6489 3.18671 52.3723 3.7399C52.0957 4.29309 51.5426 4.56969 50.8511 4.29309C48.7766 3.46331 46.5638 2.91012 44.2128 2.63352C39.9255 2.21863 35.7766 2.91011 31.9043 4.70799C24.7128 8.16543 20.2872 13.8356 18.6277 21.7186C17.383 27.3888 18.2128 32.9208 21.117 38.0378C21.2553 38.1761 21.2553 38.3144 21.3936 38.4527C21.3936 38.1761 21.3936 37.7612 21.3936 37.4846C21.3936 36.7931 21.8085 36.3782 22.3617 36.3782C22.9149 36.3782 23.3298 36.7931 23.4681 37.4846C23.4681 38.8676 23.4681 40.3888 23.4681 41.7718C23.4681 42.4633 23.0532 42.8782 22.3617 42.8782C20.9787 42.8782 19.4574 42.8782 18.0745 42.8782C17.383 42.8782 16.9681 42.4633 16.9681 41.7718C16.9681 41.2186 17.383 40.8037 18.0745 40.8037C18.766 40.8037 19.4574 40.8037 20.2872 40.8037C20.1489 40.5271 20.1489 40.3888 20.0106 40.3888C17.9362 37.208 16.8298 33.7505 16.2766 30.0165C16.1383 29.4633 16.1383 28.7718 16 28.2186C16 26.9739 16 25.8676 16 24.6229Z" fill="#555555"/>
<path d="M40.2048 52.4205C39.2368 52.2822 38.2687 52.2822 37.3006 52.0056C35.641 51.5907 33.9814 51.0375 32.3219 50.6226C31.7687 50.4843 31.4921 49.7928 31.7687 49.3779C32.0453 48.8247 32.5985 48.5481 33.1516 48.8247C34.9495 49.5162 36.7474 50.0694 38.5453 50.2077C42.9708 50.8992 47.258 50.346 51.2687 48.5481C58.8751 45.229 63.5772 39.4205 65.3751 31.3992C66.6197 25.8673 65.7899 20.4737 63.1623 15.3567C63.024 15.2184 62.8857 14.9418 62.7474 14.8035C62.7474 15.0801 62.7474 15.495 62.7474 15.7715C62.7474 16.3247 62.3325 16.8779 61.7793 16.8779C61.2261 16.8779 60.8112 16.463 60.8112 15.7715C60.8112 14.3886 60.8112 12.8673 60.8112 11.4843C60.8112 10.7928 61.2261 10.3779 61.9176 10.3779C63.3006 10.3779 64.6836 10.3779 66.0665 10.3779C66.758 10.3779 67.1729 10.7928 67.1729 11.346C67.1729 11.8992 66.758 12.3141 66.0665 12.3141C65.3751 12.3141 64.6836 12.3141 63.8538 12.3141C63.9921 12.4524 63.9921 12.5907 64.1304 12.729C66.2048 16.0481 67.4495 19.5056 67.8644 23.3779C69.3857 36.6545 60.6729 48.963 47.6729 51.729C46.5665 52.0056 45.4602 52.0056 44.3538 52.2822C44.2155 52.2822 44.0772 52.2822 43.9389 52.4205C42.5559 52.4205 41.4495 52.4205 40.2048 52.4205Z" fill="#555555"/>
<path d="M42.0018 8.02734C50.8529 8.02734 58.4593 14.2507 60.1189 22.9635C62.055 32.921 55.555 42.6018 45.4593 44.538C35.5018 46.4742 25.6827 39.9742 23.8848 30.0167C22.9167 25.4529 23.7465 21.1656 26.0976 17.0167C26.3742 16.6018 26.6508 16.3252 27.204 16.3252C27.8955 16.4635 28.3103 17.155 27.8955 17.8465C27.3423 19.0912 26.6508 20.1976 26.2359 21.4422C23.1933 30.5699 29.0018 40.389 38.4061 42.3252C47.5337 44.1231 56.1082 38.4529 57.9061 29.4635C59.704 20.1976 53.4806 11.7614 44.7678 10.2401C40.7572 9.54862 37.1614 10.2401 33.5657 12.1763C33.4274 12.3146 33.1508 12.4529 32.8742 12.4529C32.4593 12.5912 31.9061 12.3146 31.7678 11.8997C31.4912 11.4848 31.7678 10.7933 32.1827 10.655C33.2891 10.1018 34.3954 9.54862 35.6401 8.99543C37.8529 8.30394 39.7891 8.02734 42.0018 8.02734Z" fill="#555555"/>
<path d="M41.8645 29.8786C39.5134 29.8786 37.8538 27.5276 38.6836 25.1765C38.8219 24.8999 38.8219 24.6233 38.5453 24.3467C37.5772 23.3786 36.6092 22.4105 35.6411 21.4424C35.0879 20.8893 35.0879 20.3361 35.5028 19.7829C35.9177 19.368 36.6092 19.368 37.024 19.9212C37.9921 20.8893 38.9602 21.8573 39.9283 22.8254C40.2049 23.102 40.3432 23.102 40.6198 22.9637C41.4496 22.6871 42.2794 22.6871 43.1092 22.9637C43.3858 23.102 43.524 22.9637 43.8006 22.8254C45.8751 20.751 47.9496 18.6765 50.1623 16.4637C50.4389 16.1871 50.7155 16.0488 51.1304 16.0488C51.407 16.0488 51.8219 16.3254 51.9602 16.4637C52.0985 16.7403 51.9602 17.1552 51.9602 17.4318C51.9602 17.5701 51.6836 17.7084 51.5453 17.8467C49.4709 19.9212 47.5347 21.9956 45.4602 23.9318C45.1836 24.2084 45.0453 24.3467 45.1836 24.7616C46.0134 27.5276 44.3538 29.8786 41.8645 29.8786ZM40.4815 26.4212C40.4815 27.1127 41.173 27.8041 41.8645 27.8041C42.556 27.8041 43.2475 27.251 43.2475 26.4212C43.2475 25.7297 42.6943 25.0382 41.8645 24.8999C41.173 25.0382 40.4815 25.7297 40.4815 26.4212Z" fill="#555555"/>
<path d="M55.1408 27.527C54.311 27.527 53.7578 27.1121 53.7578 26.5589C53.7578 26.0057 54.1727 25.5908 54.8642 25.5908C55.8323 25.5908 56.3855 25.8674 56.3855 26.5589C56.5238 27.1121 56.1089 27.527 55.1408 27.527Z" fill="#555555"/>
<path d="M42.969 13.1441C42.969 14.1122 42.5541 14.5271 41.8626 14.5271C41.1711 14.3888 40.8945 13.9739 40.8945 13.0058C40.8945 12.4526 41.3094 11.8994 41.8626 11.8994C42.5541 11.8994 42.969 12.3143 42.969 13.1441Z" fill="#555555"/>
<path d="M42.9703 39.6978C43.1086 40.6659 42.1405 41.2191 41.5873 40.9425C41.3107 40.8042 41.1724 40.3893 41.0341 40.1127C40.8958 39.9744 41.0341 39.6978 41.0341 39.4212C41.0341 38.868 41.449 38.4531 42.0022 38.4531C42.5554 38.4531 42.9703 38.868 42.9703 39.4212C42.9703 39.5595 42.9703 39.5595 42.9703 39.6978Z" fill="#555555"/>
<path d="M28.7261 27.527C27.6197 27.6653 27.2048 26.6972 27.4814 26.144C27.758 25.7291 28.0346 25.5908 28.5878 25.5908C29.141 25.5908 29.6942 25.5908 29.9708 26.144C30.2474 26.6972 29.8325 27.527 28.7261 27.527Z" fill="#555555"/>
<path d="M54.0352 5.26166C54.0352 4.70846 54.4501 4.15527 55.0032 4.15527C55.5564 4.15527 56.1096 4.70846 56.1096 5.12336C56.1096 5.67655 55.6947 6.22974 55.1415 6.22974C54.45 6.22974 54.0352 5.81485 54.0352 5.26166Z" fill="#555555"/>
<path d="M29.0009 48.8248C28.4477 48.8248 27.8945 48.4099 27.8945 47.8568C27.8945 47.3036 28.3094 46.8887 28.8626 46.8887C29.4158 46.8887 29.969 47.3036 29.969 47.8568C30.1073 48.2717 29.5541 48.8248 29.0009 48.8248Z" fill="#555555"/>
<path d="M30.6627 14.1122C30.6627 14.6654 30.2478 15.2186 29.6946 15.0803C29.1415 15.0803 28.7266 14.5271 28.7266 13.9739C28.7266 13.4208 29.1415 13.0059 29.6946 13.0059C30.1095 13.1442 30.6627 13.559 30.6627 14.1122Z" fill="#555555"/>
<circle cx="41.9977" cy="26.3073" r="2.22815" fill="#00D169"/>
</g>
<defs>
<clipPath id="clip0_208_10051">
<rect width="52" height="52" fill="white" transform="translate(16 0.420898)"/>
</clipPath>
</defs>
</svg>
